<svg xmlns="http://www.w3.org/2000/svg" x="0px" y="0px"
width="24" height="24"
viewBox="0 0 172 172"
style=" fill:#000000;"><g fill="none" fill-rule="nonzero" stroke="none" stroke-width="1" stroke-linecap="butt" stroke-linejoin="miter" stroke-miterlimit="10" stroke-dasharray="" stroke-dashoffset="0" font-family="none" font-weight="none" font-size="none" text-anchor="none" style="mix-blend-mode: normal"><path d="M0,172v-172h172v172z" fill="none"></path><g fill="#ffffff"><path d="M85.99965,17.2c-37.89725,0 -68.74261,30.84536 -68.74261,68.8c0,38.06327 30.80709,68.8 68.74261,68.8c37.33214,0 68.74331,-30.27986 68.74331,-68.8c0,-37.95464 -30.84606,-68.8 -68.74331,-68.8zM85.7134,49.24914c10.43436,0 18.97697,8.54261 18.97697,18.97732c0,10.7645 -8.80282,18.91993 -18.97697,18.91993c-10.31966,0 -18.92028,-8.30399 -18.92028,-18.91993c0,-10.43471 8.48522,-18.97732 18.92028,-18.97732zM85.7134,132.78385c-17.24659,0 -32.49245,-10.36568 -38.12681,-20.52543c10.2048,-9.91855 23.79347,-15.47972 38.12681,-15.47972c14.39072,0 27.97799,5.56117 38.1835,15.47972c-10.5922,14.14091 -23.25046,20.52543 -38.1835,20.52543z"></path></g></g></svg>