<svg xmlns="http://www.w3.org/2000/svg" x="0px" y="0px"
width="30" height="30"
viewBox="0 0 172 172"
style=" fill:#000000;"><g fill="none" fill-rule="nonzero" stroke="none" stroke-width="1" stroke-linecap="butt" stroke-linejoin="miter" stroke-miterlimit="10" stroke-dasharray="" stroke-dashoffset="0" font-family="none" font-weight="none" font-size="none" text-anchor="none" style="mix-blend-mode: normal"><path d="M0,172v-172h172v172z" fill="none"></path><g><circle cx="24" cy="24" transform="scale(3.58333,3.58333)" r="20" fill="#4caf50"></circle><path d="M150.5,86l-64.5,43l-64.5,-43l64.5,-43z" fill="#ffeb3b"></path><path d="M111.08333,86c0,13.85675 -11.22658,25.08333 -25.08333,25.08333c-13.85675,0 -25.08333,-11.22658 -25.08333,-25.08333c0,-13.85675 11.22658,-25.08333 25.08333,-25.08333c13.85675,0 25.08333,11.22658 25.08333,25.08333z" fill="#3f51b5"></path><path d="M63.80125,74.33983c-1.21833,2.31125 -2.05683,4.83033 -2.50475,7.48917c8.07683,-0.99258 30.02475,-2.01742 48.50042,12.09375c0.82417,-2.49042 1.28642,-5.15283 1.28642,-7.92275c0,0 0,-0.01433 0,-0.02867c-17.70525,-11.99342 -37.066,-12.47 -47.28208,-11.6315z" fill="#ffffff"></path></g></g></svg>