<svg xmlns="http://www.w3.org/2000/svg" x="0px" y="0px"
width="24" height="24"
viewBox="0 0 172 172"
style=" fill:#000000;"><g fill="none" fill-rule="nonzero" stroke="none" stroke-width="1" stroke-linecap="butt" stroke-linejoin="miter" stroke-miterlimit="10" stroke-dasharray="" stroke-dashoffset="0" font-family="none" font-weight="none" font-size="none" text-anchor="none" style="mix-blend-mode: normal"><path d="M0,172v-172h172v172z" fill="none"></path><g fill="#ffffff"><path d="M100.33333,14.33333c-3.94167,0 -7.16667,3.225 -7.16667,7.16667v62.77832c9.81833,-7.88333 22.28833,-12.61166 35.83333,-12.61166c7.59667,0 14.835,1.50556 21.5,4.15723v-11.32389c0,-3.956 -3.21067,-7.16667 -7.16667,-7.16667h-21.5c-3.956,0 -7.16667,-3.21067 -7.16667,-7.16667c0,-3.956 3.21067,-7.16667 7.16667,-7.16667h21.5c3.956,0 7.16667,-3.21067 7.16667,-7.16667v-14.33333c0,-3.94167 -3.225,-7.16667 -7.16667,-7.16667zM28.66667,35.83333c-3.94167,0 -7.16667,3.225 -7.16667,7.16667v100.33333c0,3.94167 3.225,7.16667 7.16667,7.16667h43c1.36167,0 2.7183,-0.4328 3.7933,-1.0778c-2.43667,-6.30667 -3.7933,-13.25553 -3.7933,-20.4222c0,-2.43667 0.14725,-4.80167 0.43392,-7.16667h-14.76725c-3.956,0 -7.16667,-3.21067 -7.16667,-7.16667c0,-3.956 3.21067,-7.16667 7.16667,-7.16667h18.49056c0.86,-2.15 1.86277,-4.22385 3.00944,-6.15885v-15.34115c0,-3.956 -3.21067,-7.16667 -7.16667,-7.16667h-14.33333c-3.956,0 -7.16667,-3.21067 -7.16667,-7.16667c0,-3.956 3.21067,-7.16667 7.16667,-7.16667h14.33333c3.956,0 7.16667,-3.21067 7.16667,-7.16667v-14.33333c0,-3.94167 -3.225,-7.16667 -7.16667,-7.16667zM129,86c-23.66336,0 -43,19.33664 -43,43c0,23.66336 19.33664,43 43,43c23.66336,0 43,-19.33664 43,-43c0,-9.08476 -2.86179,-17.52149 -7.71257,-24.48145c-0.43351,-0.9746 -1.07909,-1.84015 -1.88965,-2.53352c-7.89814,-9.73735 -19.94815,-15.98503 -33.39778,-15.98503zM129,100.33333c7.20153,0 13.66923,2.70838 18.68652,7.04069l-18.65853,18.71452l-2.08561,-2.1276c-2.783,-2.82165 -7.32646,-2.85299 -10.14811,-0.06999c-2.82165,2.783 -2.85299,7.32646 -0.06999,10.14811l7.16667,7.26465c1.34253,1.36441 3.17506,2.13512 5.08921,2.14038c1.91415,0.00526 3.75088,-0.75537 5.10089,-2.11238l21.83594,-21.91992c1.06237,3.00795 1.74968,6.20107 1.74968,9.58822c0,15.91705 -12.74961,28.66667 -28.66667,28.66667c-15.91705,0 -28.66667,-12.74961 -28.66667,-28.66667c0,-15.91705 12.74961,-28.66667 28.66667,-28.66667z"></path></g></g></svg>