<svg xmlns="http://www.w3.org/2000/svg" x="0px" y="0px"
width="24" height="24"
viewBox="0 0 172 172"
style=" fill:#000000;"><g fill="none" fill-rule="nonzero" stroke="none" stroke-width="1" stroke-linecap="butt" stroke-linejoin="miter" stroke-miterlimit="10" stroke-dasharray="" stroke-dashoffset="0" font-family="none" font-weight="none" font-size="none" text-anchor="none" style="mix-blend-mode: normal"><path d="M0,172v-172h172v172z" fill="none"></path><g fill="#ffffff"><path d="M129,14.33333h-86c-7.88333,0 -14.33333,6.45 -14.33333,14.33333v114.66667c0,7.88333 6.45,14.33333 14.33333,14.33333h86c7.88333,0 14.33333,-6.45 14.33333,-14.33333v-114.66667c0,-7.91917 -6.41417,-14.33333 -14.33333,-14.33333zM68.08333,35.83333c5.934,0 10.75,4.816 10.75,10.75c0,5.934 -4.816,10.75 -10.75,10.75c-5.934,0 -10.75,-4.816 -10.75,-10.75c0,-5.934 4.816,-10.75 10.75,-10.75zM50.16667,73.45833c0,-5.9555 11.93967,-8.95833 17.91667,-8.95833c5.977,0 17.91667,3.00283 17.91667,8.95833v5.375h-35.83333zM114.66667,136.16667h-57.33333c-3.956,0 -7.16667,-3.21067 -7.16667,-7.16667v0c0,-3.956 3.21067,-7.16667 7.16667,-7.16667h57.33333c3.956,0 7.16667,3.21067 7.16667,7.16667v0c0,3.956 -3.21067,7.16667 -7.16667,7.16667zM114.66667,107.5h-57.33333c-3.956,0 -7.16667,-3.21067 -7.16667,-7.16667v0c0,-3.956 3.21067,-7.16667 7.16667,-7.16667h57.33333c3.956,0 7.16667,3.21067 7.16667,7.16667v0c0,3.956 -3.21067,7.16667 -7.16667,7.16667zM114.66667,50.16667h-7.16667c-3.956,0 -7.16667,-3.21067 -7.16667,-7.16667v0c0,-3.956 3.21067,-7.16667 7.16667,-7.16667h7.16667c3.956,0 7.16667,3.21067 7.16667,7.16667v0c0,3.956 -3.21067,7.16667 -7.16667,7.16667zM114.66667,78.83333h-7.16667c-3.956,0 -7.16667,-3.21067 -7.16667,-7.16667v0c0,-3.956 3.21067,-7.16667 7.16667,-7.16667h7.16667c3.956,0 7.16667,3.21067 7.16667,7.16667v0c0,3.956 -3.21067,7.16667 -7.16667,7.16667z"></path></g></g></svg>