<svg width="427" height="413" viewBox="0 0 427 413" fill="none" xmlns="http://www.w3.org/2000/svg">
<path d="M58.371 95.2791H165.292V164.498H58.371V95.2791Z" fill="white"/>
<path d="M165.377 164.581V163.342V159.707V145.748C165.377 133.688 165.292 116.425 165.292 95.3617L165.463 95.5269H58.5418L58.7126 95.3617V164.581L58.5418 164.415L135.573 164.498L157.606 164.581H163.498H165.036H165.548H163.584H157.691L135.743 164.663L58.6272 164.746H58.4564V164.581V95.3617V95.1965H58.6272H165.548H165.719V95.3617C165.719 116.507 165.633 133.853 165.633 145.83V159.707V163.342C165.633 164.168 165.377 164.581 165.377 164.581Z" fill="#DFDFDF"/>
<path d="M58.371 101.474C58.371 101.392 82.283 101.309 111.831 101.309C141.38 101.309 165.292 101.392 165.292 101.474C165.292 101.557 141.38 101.639 111.831 101.639C82.283 101.639 58.371 101.557 58.371 101.474Z" fill="#DFDFDF"/>
<path d="M62.6409 98.3353C62.6409 98.8309 62.2993 99.1613 61.7869 99.1613C61.2745 99.1613 60.9329 98.8309 60.9329 98.3353C60.9329 97.8397 61.2745 97.5093 61.7869 97.5093C62.2993 97.5093 62.6409 97.9223 62.6409 98.3353Z" fill="#DFDFDF"/>
<path d="M64.6905 97.5093C65.162 97.5093 65.5445 97.8794 65.5445 98.3353C65.5445 98.7913 65.162 99.1613 64.6905 99.1613C64.2191 99.1613 63.8365 98.7913 63.8365 98.3353C63.8365 97.8794 64.2191 97.5093 64.6905 97.5093Z" fill="#DFDFDF"/>
<path d="M68.4482 98.3353C68.4482 98.8309 68.1066 99.1613 67.5942 99.1613C67.0818 99.1613 66.7402 98.8309 66.7402 98.3353C66.7402 97.8397 67.0818 97.5093 67.5942 97.5093C68.1066 97.5093 68.4482 97.9223 68.4482 98.3353Z" fill="#DFDFDF"/>
<path d="M67.5941 108.66H96.1177V136.249H67.5941V108.66Z" fill="#DFDFDF"/>
<path d="M150.687 116.507C150.687 116.59 139.585 116.673 125.836 116.673C112.087 116.673 100.985 116.59 100.985 116.507C100.985 116.425 112.087 116.342 125.836 116.342C139.585 116.342 150.687 116.425 150.687 116.507Z" fill="#DFDFDF"/>
<path d="M150.687 121.629C150.687 121.711 139.585 121.794 125.836 121.794C112.087 121.794 100.985 121.711 100.985 121.629C100.985 121.546 112.087 121.463 125.836 121.463C139.585 121.463 150.687 121.546 150.687 121.629Z" fill="#DFDFDF"/>
<path d="M150.687 126.75C150.687 126.832 139.585 126.915 125.836 126.915C112.087 126.915 100.985 126.832 100.985 126.75C100.985 126.667 112.087 126.585 125.836 126.585C139.585 126.585 150.687 126.667 150.687 126.75Z" fill="#DFDFDF"/>
<path d="M130.363 131.871C130.022 131.954 129.595 131.954 129.168 131.954L126.008 132.036C123.36 132.036 119.688 132.119 115.674 132.119C111.661 132.119 107.988 132.119 105.256 132.036L102.096 131.954C101.669 131.954 101.327 131.954 100.986 131.871C101.327 131.788 101.754 131.788 102.096 131.788L105.256 131.706C107.903 131.623 111.575 131.623 115.674 131.623C119.774 131.623 123.36 131.623 126.008 131.706L129.168 131.788C129.595 131.788 130.022 131.788 130.363 131.871Z" fill="#DFDFDF"/>
<path d="M69.3876 145.583H82.7954V158.551H69.3876V145.583Z" fill="#DFDFDF"/>
<path d="M93.7266 145.583H107.134V158.551H93.7266V145.583Z" fill="#DFDFDF"/>
<path d="M117.98 145.583H131.388V158.551H117.98V145.583Z" fill="#DFDFDF"/>
<path d="M142.319 145.583H155.727V158.551H142.319V145.583Z" fill="#DFDFDF"/>
<path d="M360.175 112.584C360.089 112.997 359.834 113.41 359.578 113.74C358.381 115.475 356.246 116.301 354.111 115.97C353.173 115.805 352.232 115.392 351.465 114.731C351.038 114.401 350.694 113.988 350.439 113.575C350.096 113.079 349.927 112.584 349.757 112.088C349.414 111.014 349.5 109.775 349.927 108.702C350.354 107.628 351.121 106.719 352.147 106.141C352.658 105.811 353.173 105.645 353.684 105.48C354.197 105.315 354.71 105.315 355.308 105.315C357.186 105.398 358.893 106.389 359.917 107.958C360.601 108.949 360.858 110.188 360.687 111.427C360.515 111.84 360.345 112.253 360.175 112.584C360.175 112.584 360.345 112.171 360.432 111.345C360.516 110.188 360.261 109.032 359.662 108.041C358.724 106.554 357.015 105.645 355.22 105.645C354.709 105.645 354.197 105.728 353.684 105.811C350.867 106.554 349.242 109.362 350.012 112.088C350.183 112.584 350.354 113.079 350.695 113.492C350.951 113.905 351.294 114.318 351.635 114.649C353.002 115.805 354.881 116.218 356.589 115.723C357.783 115.392 358.807 114.731 359.49 113.74C359.747 113.41 360.005 112.997 360.175 112.584Z" fill="#DFDFDF"/>
<path d="M353.268 98.6503L353.15 98.5308L352.798 98.0555L351.509 96.2738L351.568 96.3336C350.409 96.8333 348.823 97.4981 346.935 98.2157L346.997 98.1586L347.535 101.092L347.594 101.152L347.532 101.209C346.671 101.89 345.869 102.632 345.247 103.435L345.185 103.492L345.127 103.433L342.118 102.897L342.241 102.783L340.328 107.298L340.331 107.181L342.83 108.873L342.889 108.933L342.886 109.049C342.742 110.098 342.717 111.148 342.936 112.205L342.933 112.322L342.872 112.379C342.074 112.886 341.276 113.512 340.417 114.077L340.482 113.903L342.434 118.387L342.254 118.324L345.286 117.808L345.406 117.81L345.466 117.871C346.172 118.705 346.881 119.422 347.772 120.084L347.83 120.143L347.828 120.261L347.28 123.17L347.161 123.05L351.831 124.908L351.648 124.962C352.209 124.215 352.772 123.351 353.394 122.548L353.456 122.491L353.577 122.493C354.661 122.635 355.747 122.659 356.839 122.449L357.019 122.512L357.078 122.572L357.137 122.632L357.255 122.752L357.489 123.107L357.958 123.702L358.899 124.892L358.719 124.829L363.293 122.887L363.228 123.061L362.69 120.127L362.693 120.011L362.755 119.954C363.615 119.272 364.355 118.588 365.039 117.727L365.101 117.67L365.222 117.673L368.23 118.207L368.048 118.262C368.747 116.701 369.385 115.196 369.961 113.748L370.017 113.924L367.518 112.232L367.46 112.173L367.462 112.056C367.606 111.007 367.631 109.957 367.412 108.9L367.415 108.784L367.477 108.727C368.336 108.162 369.193 107.596 369.931 107.029L369.867 107.202L367.914 102.718L368.094 102.781L365.062 103.297L365.001 103.354L364.942 103.295C364.235 102.46 363.467 101.684 362.635 101.081L362.577 101.021L362.639 100.964L363.187 98.0557L363.246 98.1154L358.576 96.2571L358.638 96.2C357.952 97.1784 357.329 97.9817 356.892 98.6145C356.05 98.4793 355.204 98.4596 354.419 98.501L353.753 98.5444L353.268 98.6503L353.512 98.539C353.632 98.5411 353.815 98.4874 354.118 98.4358C354.966 98.338 355.811 98.357 356.595 98.4331L356.533 98.4901C357.032 97.8003 357.592 97.0534 358.279 96.0757L358.217 96.1327L358.276 96.1919L362.946 98.0503L363.004 98.1094L363.002 98.2268L362.453 101.136L362.456 101.019C363.347 101.681 364.115 102.458 364.82 103.291L364.7 103.289L367.732 102.773L367.852 102.775L367.912 102.836L369.865 107.32L369.924 107.38L369.862 107.437C369.065 107.944 368.266 108.569 367.408 109.134L367.41 109.017C367.566 110.131 367.543 111.182 367.398 112.23L367.342 112.054L369.841 113.746L369.899 113.805L369.897 113.922L367.983 118.436L367.981 118.553L367.859 118.55L364.852 118.015L365.034 117.96C364.351 118.822 363.549 119.563 362.688 120.245L362.751 120.07L363.289 123.004L363.287 123.121L363.226 123.178L358.592 125.06L358.53 125.117L358.472 125.057L357.532 123.868L357.062 123.273L356.829 122.917L356.71 122.797L356.652 122.738L356.592 122.678C356.952 122.803 356.652 122.738 356.772 122.74C355.683 122.833 354.534 122.865 353.392 122.665L353.573 122.61C352.951 123.414 352.388 124.277 351.828 125.024L351.704 125.138L351.584 125.136L346.914 123.278L346.794 123.276L346.796 123.158C347 122.17 347.144 121.121 347.345 120.25L347.402 120.427C346.511 119.764 345.742 118.986 345.036 118.153L345.217 118.216L342.185 118.732L342.064 118.729L342.005 118.669L340.052 114.185L339.993 114.125L340.055 114.068C340.913 113.504 341.771 112.938 342.509 112.371L342.444 112.544C342.289 111.431 342.312 110.38 342.457 109.332L342.454 109.448L339.955 107.756L339.896 107.697L339.958 107.64C340.658 106.078 341.296 104.574 341.871 103.125L341.933 103.068L342.054 103.072L345.062 103.606L345 103.663C345.684 102.803 346.486 102.061 347.347 101.38L347.286 101.437L346.748 98.5035L346.689 98.4438L346.75 98.3868L351.442 96.5639L351.503 96.5068L352.793 98.2891L353.144 98.7644L353.268 98.6503Z" fill="#DFDFDF"/>
<path d="M373.631 99.7413C373.431 98.8695 373.409 97.9359 373.511 97.1157L371.369 95.8196L372.792 91.9901L375.335 92.284C375.862 91.5121 376.453 90.9146 377.164 90.3143L376.566 87.9331L380.394 86.2105L381.946 88.1041C382.848 87.9079 383.814 87.8862 384.661 87.9845L386.004 85.909L389.961 87.2804L389.654 89.7417C390.45 90.2495 391.067 90.8199 391.687 91.5064L394.213 90.9822L395.987 94.6812L394.028 96.1859C394.229 97.0577 394.249 97.9925 394.147 98.8128L396.29 100.108L394.867 103.937L392.322 103.644C391.797 104.415 391.206 105.013 390.495 105.613L391.092 107.995L387.265 109.717L385.712 107.824C384.811 108.019 383.904 107.981 382.997 107.944L381.655 110.018L377.698 108.647L378.004 106.187C377.207 105.679 376.59 105.109 375.972 104.421L373.446 104.945L371.672 101.246L373.631 99.7413ZM379.669 99.6054C380.684 101.803 383.423 102.734 385.635 101.691C387.907 100.706 388.875 98.0545 387.8 95.9171C386.784 93.7205 384.045 92.7884 381.834 93.8314C379.561 94.8173 378.591 97.3513 379.669 99.6054C379.607 99.5484 379.669 99.6054 379.669 99.6054Z" fill="#DFDFDF"/>
<path d="M346.547 74.8532C346.274 73.4572 346.243 72.0558 346.394 70.7087L343.025 68.6223L345.247 62.6717L349.183 63.1089C350.002 61.922 350.946 60.9666 352.074 60.0643L351.203 56.2871L357.183 53.5819L359.607 56.6237C361.051 56.3569 362.5 56.3243 363.892 56.4682L366.053 53.207L372.202 55.347L371.745 59.1542C372.971 59.9445 373.958 60.857 374.888 61.9467L378.795 61.0986L381.582 66.8787L378.434 69.228C378.707 70.624 378.798 71.965 378.709 73.3698L382.078 75.4555L379.856 81.4062L375.92 80.9684C375.101 82.1558 374.157 83.1113 373.029 84.013L373.899 87.7914L367.92 90.4959L365.375 87.4575C363.931 87.7237 362.483 87.7557 361.09 87.6117L358.928 90.8742L352.78 88.7336L353.238 84.9258C352.011 84.1361 351.024 83.2236 350.094 82.1345L346.126 82.9243L343.338 77.1449L346.547 74.8532ZM356.027 74.6982C357.735 78.1067 361.874 79.5325 365.403 77.9925C368.932 76.4525 370.41 72.3297 368.823 68.9185C367.116 65.5101 362.976 64.0843 359.447 65.6243C355.859 67.224 354.32 71.2892 356.027 74.6982Z" fill="#DFDFDF"/>
<path d="M315.339 49.8491C315.509 49.6839 315.596 49.5187 315.766 49.3535L317.047 48.1145C318.158 47.0407 319.695 45.6365 321.403 44.0671V44.2323C319.695 42.6629 318.158 41.2587 317.047 40.2675L315.766 39.0285C315.596 38.8633 315.425 38.6981 315.339 38.5329C315.509 38.6155 315.68 38.7807 315.852 38.9459L317.217 40.1023C318.328 41.0935 319.95 42.4977 321.658 44.0671L321.744 44.1497L321.658 44.2323C319.95 45.8017 318.414 47.2059 317.217 48.2797L315.852 49.5187C315.766 49.6013 315.509 49.6839 315.339 49.8491Z" fill="#DFDFDF"/>
<path d="M302.017 38.4503C301.846 38.6155 301.761 38.7807 301.59 38.9459L300.309 40.1849C299.199 41.2587 297.662 42.6629 295.954 44.2323V43.9845C297.662 45.5539 299.199 46.9581 300.309 47.9493L301.59 49.1883C301.761 49.3535 301.932 49.5187 302.017 49.6839C301.846 49.6013 301.676 49.4361 301.505 49.2709C301.163 48.9405 300.651 48.5275 300.138 48.1145C299.028 47.1233 297.406 45.7191 295.698 44.1497L295.612 44.0671L295.698 43.9845C297.406 42.4151 298.943 41.0109 300.138 39.9371L301.505 38.7807C301.676 38.6981 301.846 38.5329 302.017 38.4503Z" fill="#DFDFDF"/>
<path d="M305.433 52.4923C305.348 52.4923 306.714 48.6927 308.593 43.9845C310.472 39.2763 311.924 35.5593 312.009 35.5593C312.094 35.5593 310.728 39.3589 308.849 44.0671C306.97 48.7753 305.519 52.4923 305.433 52.4923Z" fill="#DFDFDF"/>
<path d="M330.541 60.6697V60.0089V58.1917V51.2533C330.541 45.3061 330.541 36.7983 330.455 26.4733L330.541 26.6385H287.157L287.328 26.4733V60.6697L287.157 60.5045L318.499 60.5871H327.381H329.772H327.466L318.585 60.6697L287.157 60.7523H286.987V60.5871V26.3907V26.2255H287.157H330.541H330.626V26.3907C330.626 36.7157 330.541 45.2235 330.541 51.2533V58.1917V60.0089V60.6697Z" fill="#DFDFDF"/>
<path d="M330.881 31.5119C330.881 31.5945 321.06 31.6771 309.019 31.6771C296.978 31.6771 287.157 31.5945 287.157 31.5119C287.157 31.4293 296.892 31.3467 309.019 31.3467C321.147 31.3467 330.881 31.4293 330.881 31.5119Z" fill="#DFDFDF"/>
<path d="M290.659 29.0339C290.659 29.3643 290.403 29.6121 290.061 29.6121C289.719 29.6121 289.463 29.3643 289.463 29.0339C289.463 28.7035 289.719 28.4557 290.061 28.4557C290.403 28.4557 290.659 28.7035 290.659 29.0339Z" fill="#DFDFDF"/>
<path d="M292.196 28.4557C292.527 28.4557 292.794 28.7143 292.794 29.0339C292.794 29.3528 292.527 29.6121 292.196 29.6121C291.866 29.6121 291.598 29.3528 291.598 29.0339C291.598 28.7143 291.866 28.4557 292.196 28.4557Z" fill="#DFDFDF"/>
<path d="M294.929 29.0339C294.929 29.3643 294.673 29.6121 294.331 29.6121C293.989 29.6121 293.733 29.3643 293.733 29.0339C293.733 28.7035 293.989 28.4557 294.331 28.4557C294.673 28.4557 294.929 28.7035 294.929 29.0339Z" fill="#DFDFDF"/>
<path d="M146.418 42.9107H246.678V82.3109H146.418V42.9107Z" fill="white"/>
<path d="M246.678 82.3109V81.6501V79.5851V71.7381C246.678 64.9649 246.678 55.1355 246.592 42.9107L246.678 42.9933L146.418 43.0759L146.589 42.9107V82.3109L146.418 82.1457L218.325 82.2283L239.163 82.3109H244.714H239.163H218.325L146.333 82.3935H146.162V82.2283V42.8281V42.6629H146.333H246.592H246.678V42.9107C246.678 55.1355 246.678 64.9649 246.592 71.7381V79.5851V81.5675C246.592 81.9805 246.678 82.3109 246.678 82.3109Z" fill="#DFDFDF"/>
<path d="M146.589 48.2797C146.589 48.1971 168.964 48.1145 196.634 48.1145C224.303 48.1145 246.678 48.1971 246.678 48.2797C246.678 48.3623 224.303 48.4449 196.634 48.4449C168.964 48.4449 146.589 48.3623 146.589 48.2797Z" fill="#DFDFDF"/>
<path d="M150.774 45.8843C150.774 46.2973 150.432 46.5451 150.005 46.5451C149.578 46.5451 149.237 46.2147 149.237 45.8843C149.237 45.4713 149.578 45.1409 150.005 45.1409C150.432 45.1409 150.774 45.4713 150.774 45.8843Z" fill="#EBEBEB"/>
<path d="M153.249 45.8843C153.249 46.2973 152.908 46.5451 152.481 46.5451C152.054 46.5451 151.712 46.2147 151.712 45.8843C151.712 45.4713 152.054 45.1409 152.481 45.1409C152.908 45.1409 153.249 45.4713 153.249 45.8843Z" fill="#EBEBEB"/>
<path d="M154.958 45.1409C155.382 45.1409 155.726 45.4738 155.726 45.8843C155.726 46.2949 155.382 46.6277 154.958 46.6277C154.533 46.6277 154.189 46.2949 154.189 45.8843C154.189 45.4738 154.533 45.1409 154.958 45.1409Z" fill="#EBEBEB"/>
<path d="M154.958 54.64H179.212V78.0158H154.958V54.64Z" fill="#DFDFDF"/>
<path d="M239.76 60.9175C239.76 61.0001 227.291 61.0827 211.919 61.0827C196.547 61.0827 184.079 61.0001 184.079 60.9175C184.079 60.8349 196.547 60.7523 211.919 60.7523C227.291 60.7523 239.76 60.8349 239.76 60.9175Z" fill="#DFDFDF"/>
<path d="M239.76 65.7084C239.76 65.791 227.291 65.8736 211.919 65.8736C196.547 65.8736 184.079 65.791 184.079 65.7084C184.079 65.6258 196.547 65.5432 211.919 65.5432C227.291 65.5432 239.76 65.6258 239.76 65.7084Z" fill="#DFDFDF"/>
<path d="M219.948 70.4991H219.606H218.58L214.737 70.5817L202.099 70.6643L189.46 70.5817L185.617 70.4991H184.592H184.251H184.592H185.617L189.46 70.4165H202.099H214.737L218.58 70.4991H219.606H219.948Z" fill="#DFDFDF"/>
<path d="M403.558 366.784C403.558 366.868 318.328 367.033 213.201 367.033C108.074 367.033 22.8445 366.95 22.8445 366.784C22.8445 366.62 108.074 366.537 213.201 366.537C318.328 366.537 403.558 366.62 403.558 366.784Z" fill="#253138"/>
<path d="M284.754 340.992L285.234 359.416C285.234 359.416 304.564 365.217 305.049 368.598L268.503 370.59L266.478 341.946L284.754 340.992Z" fill="#FF6129"/>
<path d="M273.86 358.504C273.113 358.796 272.733 359.482 272.953 360.217C273.173 360.951 273.966 361.322 274.719 361.113C275.467 360.821 275.926 360.048 275.705 359.313C275.4 358.582 274.529 358.3 273.781 358.592" fill="white"/>
<path d="M268.403 370.589L268.208 367.64L303.563 366.766C303.563 366.766 305.228 367.346 305.135 368.536L268.403 370.589Z" fill="white"/>
<path d="M285.879 359.197C285.89 359.363 285.046 359.495 284.15 360.127C283.254 360.76 282.879 361.531 282.703 361.457C282.528 361.384 282.716 360.375 283.776 359.649C284.836 358.925 285.868 359.032 285.879 359.197Z" fill="#253138"/>
<path d="M289.807 360.451C289.819 360.615 289.077 360.99 288.534 361.768C287.99 362.545 287.871 363.3 287.701 363.309C287.531 363.319 287.379 362.332 288.081 361.379C288.783 360.425 289.796 360.285 289.807 360.451Z" fill="#253138"/>
<path d="M292.249 364.858C292.079 364.867 291.769 364.056 292.216 363.117C292.663 362.181 293.397 361.724 293.493 361.885C293.589 362.044 293.114 362.57 292.741 363.336C292.368 364.105 292.497 364.76 292.249 364.858Z" fill="#253138"/>
<path d="M285.275 355.019C285.201 355.191 284.418 354.985 283.403 355.127C282.386 355.268 281.641 355.646 281.545 355.484C281.448 355.322 282.176 354.694 283.364 354.543C284.549 354.391 285.35 354.848 285.275 355.019Z" fill="#253138"/>
<path d="M284.945 344.687L284.998 348.041L267.008 348.823L266.722 345.818L284.945 344.687Z" fill="black"/>
<path d="M285.123 351.314C284.539 351.514 283.859 351.553 283.252 351.421C282.566 351.376 281.954 351.161 281.342 350.946C280.99 350.8 280.639 350.653 280.281 350.424C280.106 350.351 279.839 350.199 279.744 350.038C279.472 349.804 279.444 349.39 279.597 349.131C279.749 348.873 280.079 348.687 280.334 348.673C280.589 348.659 280.76 348.649 281.019 348.717C281.45 348.776 281.803 348.923 282.154 349.069C282.765 349.284 283.39 349.665 283.928 350.05C284.829 350.748 285.129 351.397 285.135 351.48C285.14 351.563 284.59 351.012 283.694 350.397C283.162 350.094 282.63 349.791 282.018 349.576C281.666 349.43 281.32 349.366 280.975 349.303C280.544 349.244 280.203 349.263 280.13 349.434C280.056 349.604 280.135 349.517 280.141 349.6C280.231 349.678 280.413 349.834 280.589 349.907C280.94 350.054 281.212 350.288 281.557 350.352C282.17 350.566 282.782 350.781 283.389 350.913C283.91 351.05 284.517 351.182 285.123 351.314Z" fill="#253138"/>
<path d="M284.902 351.561C284.53 351.085 284.314 350.435 284.275 349.856C284.23 349.196 284.271 348.529 284.395 347.859C284.458 347.525 284.6 347.103 284.746 346.762C284.882 346.258 285.368 345.898 285.87 345.787C286.209 345.768 286.474 345.918 286.666 346.238C286.767 346.481 286.861 346.641 286.878 346.889C286.992 347.297 287.019 347.71 286.962 348.128C286.923 348.793 286.714 349.47 286.325 349.989C285.709 350.936 284.963 351.227 284.957 351.143C284.952 351.061 285.522 350.697 285.968 349.759C286.274 349.245 286.404 348.658 286.449 348.074C286.511 347.739 286.489 347.41 286.382 347.084C286.27 346.676 286.168 346.432 285.998 346.441C285.83 346.451 285.508 346.719 285.36 347.06C285.213 347.399 285.067 347.739 285.004 348.074C284.874 348.662 284.745 349.249 284.784 349.827C284.771 350.905 284.986 351.556 284.902 351.561Z" fill="#253138"/>
<path d="M127.033 224.548L149.322 297.319C150.347 300.54 153.421 302.77 156.837 302.77L247.361 303.018C251.973 303.018 255.73 299.384 255.73 294.923V294.51C255.474 290.215 251.802 286.829 247.361 286.829H212.774L185.105 212.158H136.597C131.132 212.158 126.606 216.453 126.606 221.822C126.606 222.731 126.776 223.64 127.033 224.548Z" fill="#455A63"/>
<path d="M203.636 292.859C203.636 293.024 194.413 293.189 183.055 293.189C171.697 293.189 162.474 293.024 162.474 292.859C162.474 292.694 171.697 292.529 183.055 292.529C194.413 292.529 203.636 292.694 203.636 292.859Z" fill="#253138"/>
<path d="M133.694 214.471C133.865 214.388 140.013 231.817 147.443 253.458C154.873 275.099 160.766 292.528 160.595 292.611C160.424 292.693 154.275 275.265 146.845 253.623C139.416 231.982 133.523 214.554 133.694 214.471Z" fill="#253138"/>
<path d="M199.793 367.528L194.328 367.364V302.771H199.793V367.528Z" fill="#455A63"/>
<path d="M171.441 367.198H222.766L199.537 359.434H193.986L171.441 367.198Z" fill="#455A63"/>
<path d="M158.374 195.473L166.829 236.525L165.292 267.252L222.424 258.084L220.204 231.156L220.119 208.854L234.124 235.121L245.055 214.719L225.072 179.696C221.4 176.062 216.959 173.254 212.006 171.519C209.358 170.61 206.625 170.115 203.807 170.032C197.402 172.015 190.485 172.015 184.08 170.032C183.311 170.115 182.201 170.197 180.749 170.363H180.493C168.366 171.849 159.058 181.514 158.46 193.325L158.374 195.473Z" fill="#FF6129"/>
<path d="M180.835 170.445C180.835 170.445 157.35 170.61 154.446 194.564L154.019 212.158L174.259 211.993L180.835 170.445Z" fill="#FF6129"/>
<path d="M236.857 201.255C236.857 201.42 218.411 201.585 195.609 201.585C172.807 201.585 154.446 201.42 154.446 201.255C154.446 201.09 172.892 200.924 195.694 200.924C218.496 200.924 236.857 201.09 236.857 201.255Z" fill="#F9F9F9"/>
<path d="M236.857 205.055C236.857 205.22 218.411 205.385 195.609 205.385C172.807 205.385 154.361 205.22 154.361 205.055C154.361 204.889 172.807 204.724 195.609 204.724C218.411 204.724 236.857 204.889 236.857 205.055Z" fill="#F9F9F9"/>
<path d="M235.576 198.116C235.576 198.281 217.386 198.447 195.011 198.447C172.636 198.447 154.446 198.281 154.446 198.116C154.446 197.951 172.636 197.786 195.011 197.786C217.386 197.786 235.576 197.951 235.576 198.116Z" fill="#F9F9F9"/>
<path d="M219.949 235.121C219.778 235.121 219.861 225.374 220.119 213.397C220.375 201.42 220.802 191.673 220.973 191.673C221.142 191.673 221.059 201.42 220.803 213.397C220.546 225.374 220.119 235.121 219.949 235.121Z" fill="#253138"/>
<path d="M205.259 170.445C205.259 170.445 205.344 170.61 205.43 170.858C205.601 171.271 205.686 171.684 205.771 172.097C206.113 173.667 206.028 175.236 205.601 176.723C204.917 178.953 203.551 180.935 201.758 182.505C199.537 184.405 196.634 185.478 193.645 185.478C190.656 185.561 187.752 184.405 185.617 182.34C183.909 180.605 182.884 178.457 182.628 176.062C182.457 174.493 182.628 172.923 183.226 171.436C183.397 171.023 183.567 170.693 183.824 170.28C183.994 170.032 184.08 169.95 184.08 169.95C184.08 169.95 183.824 170.528 183.482 171.519C183.055 173.006 182.884 174.493 183.14 175.979C183.482 178.21 184.507 180.275 186.129 181.927C188.179 183.826 190.912 184.9 193.73 184.9C196.548 184.9 199.366 183.909 201.501 182.092C203.295 180.605 204.661 178.705 205.344 176.558C205.771 175.071 205.942 173.584 205.771 172.097C205.43 171.023 205.174 170.445 205.259 170.445Z" fill="#253138"/>
<path d="M249.923 347.787L258.378 370.337L270.419 386.279C271.273 387.352 270.932 388.922 269.821 389.748L269.736 389.83C269.053 390.243 268.199 390.326 267.43 389.996C262.562 388.013 244.799 380.827 244.287 379.175C243.689 377.193 232.245 352.991 232.245 352.991L249.923 347.787Z" fill="#FF6129"/>
<path d="M269.736 389.831L243.689 377.689L244.116 378.597C244.458 379.423 245.055 380.084 245.824 380.497C247.959 381.654 253.937 384.545 267.345 389.996C268.113 390.327 268.967 390.327 269.736 389.831Z" fill="white"/>
<path d="M245.482 368.685C246.251 368.85 246.678 369.594 246.593 370.337C246.423 371.081 245.653 371.576 244.885 371.411C244.116 371.246 243.604 370.42 243.689 369.676C243.945 368.933 244.799 368.52 245.569 368.768" fill="white"/>
<path d="M260.513 382.066C260.769 381.157 261.28 380.331 261.879 379.588C262.988 378.432 264.356 378.266 264.356 378.102C264.356 377.936 264.014 378.019 263.415 378.102C261.879 378.515 260.769 379.671 260.513 381.157C260.342 381.736 260.426 382.066 260.513 382.066Z" fill="#253138"/>
<path d="M263.331 384.462C263.502 384.545 263.929 383.553 264.954 382.727C265.637 382.314 266.32 381.901 267.089 381.571C267.089 381.406 265.808 381.406 264.612 382.314C263.416 383.223 263.246 384.379 263.331 384.462Z" fill="#253138"/>
<path d="M255.901 379.423C256.072 379.506 256.755 377.936 258.292 376.615C259.83 375.293 261.452 374.715 261.367 374.55C261.281 374.385 259.488 374.715 257.865 376.202C256.243 377.689 255.73 379.341 255.901 379.423Z" fill="#253138"/>
<path d="M252.741 372.733C252.828 372.815 253.937 371.824 255.56 371.164C257.182 370.503 258.634 370.337 258.634 370.255C258.634 370.171 257.098 370.007 255.303 370.751C253.51 371.494 252.656 372.649 252.741 372.733Z" fill="#253138"/>
<path d="M250.094 366.207C250.179 366.29 251.204 365.051 252.998 364.473C254.791 363.894 256.328 364.225 256.328 364.06C256.328 363.894 255.987 363.812 255.303 363.729C253.595 363.481 251.802 364.06 250.606 365.299C250.179 365.794 250.009 366.125 250.094 366.207Z" fill="#253138"/>
<path d="M252.401 363.234C252.314 362.904 252.229 362.656 252.058 362.408C251.631 361.665 251.12 361.004 250.436 360.426C250.009 360.013 249.412 359.682 248.814 359.6C248.387 359.6 247.959 359.847 247.788 360.178C247.616 360.508 247.616 360.921 247.788 361.334C248.47 362.904 250.266 363.647 251.974 363.234C253.595 362.821 254.792 361.498 254.963 359.846C255.048 359.433 254.875 359.021 254.62 358.774C254.279 358.526 253.852 358.443 253.425 358.691C252.913 359.021 252.486 359.517 252.23 360.013C251.803 360.756 251.547 361.498 251.376 362.324C251.29 362.655 251.29 362.904 251.376 363.234C251.632 362.16 252.059 361.169 252.657 360.178C252.913 359.682 253.254 359.351 253.766 359.02C253.937 358.938 254.194 358.939 254.449 359.104C254.621 359.352 254.706 359.599 254.62 359.846C254.364 361.251 253.34 362.408 251.974 362.737C250.522 363.068 249.07 362.408 248.471 361.169C248.301 360.921 248.301 360.591 248.387 360.343C248.471 360.095 248.728 360.013 248.898 360.013C249.412 360.095 249.924 360.343 250.266 360.672C251.205 361.416 251.887 362.325 252.401 363.234Z" fill="#253138"/>
<path d="M267.346 254.118C245.654 256.267 216.873 259.158 216.873 259.158L220.803 293.353C220.803 293.353 263.076 282.533 262.819 283.441C262.562 284.351 264.784 356.213 264.784 356.213H290.233L290.744 274.852C290.916 263.535 281.607 254.283 269.908 254.118C268.967 254.036 268.2 254.036 267.346 254.118Z" fill="#253138"/>
<path d="M164.865 267.913V278.486C164.865 285.672 173.319 293.354 180.835 293.354H186.642C191.168 293.354 198.342 290.133 202.014 287.572L204.234 286.003L230.794 365.464C230.794 365.464 261.111 360.177 261.111 359.269C261.111 358.36 240.529 294.18 231.05 264.361C227.207 252.219 213.714 245.116 201.245 249.246C200.818 249.411 200.391 249.576 199.964 249.741C186.3 255.11 164.865 267.913 164.865 267.913Z" fill="#253138"/>
<path d="M261.025 359.351C260.94 359.268 260.94 359.186 260.94 359.104C260.854 358.855 260.769 358.608 260.598 358.278C260.342 357.534 259.915 356.46 259.403 354.974C258.378 352.083 257.011 347.953 255.303 342.748C251.887 332.423 247.361 318.051 242.408 302.192C239.931 294.263 237.626 286.663 235.491 279.808C234.466 276.338 233.441 273.117 232.502 270.06C231.989 268.491 231.562 267.087 231.135 265.6C230.708 264.196 230.281 262.875 229.769 261.553C228.829 259.322 227.378 257.34 225.499 255.688C224.132 254.449 222.595 253.293 220.973 252.301C219.692 251.475 218.667 250.815 217.898 250.402L217.13 249.906C217.044 249.823 216.959 249.823 216.873 249.741C216.959 249.741 217.044 249.823 217.13 249.906L217.984 250.319C218.752 250.732 219.777 251.311 221.058 252.137C222.681 253.127 224.218 254.202 225.67 255.441C227.634 257.093 229.086 259.075 230.11 261.387C230.623 262.709 231.135 264.031 231.562 265.435C231.989 266.839 232.502 268.326 232.929 269.896L236.003 279.642C238.138 286.498 240.529 294.097 243.006 302.027C247.959 317.886 252.4 332.176 255.645 342.666L259.573 354.974L260.684 358.278C260.769 358.608 260.854 358.938 260.94 359.104C261.025 359.268 261.025 359.351 261.025 359.351Z" fill="#455A63"/>
<path d="M267.43 273.2C267.601 273.283 266.149 275.43 264.954 278.239C263.758 281.047 263.246 283.525 262.989 283.525C262.733 283.525 263.075 280.964 264.356 277.991C265.637 275.017 267.259 273.117 267.43 273.2Z" fill="#455A63"/>
<path d="M272.298 276.504C272.383 276.668 270.163 277.577 267.943 279.311C265.722 281.047 264.185 282.863 264.014 282.781C263.843 282.699 265.124 280.634 267.516 278.816C269.907 276.999 272.213 276.338 272.298 276.504Z" fill="#455A63"/>
<path d="M230.964 365.546C230.794 365.629 223.619 344.318 214.994 318.051C206.368 291.785 199.452 270.391 199.622 270.391C199.792 270.391 206.967 291.619 215.592 317.886C224.219 344.153 231.135 365.463 230.964 365.546Z" fill="#455A63"/>
<path d="M210.306 219.611C210.306 219.611 223.098 220.349 225.008 223.273C226.92 226.196 230.176 234.087 229.065 234.152C228.383 234.141 227.617 233.964 227.114 233.542L223.805 228.463C223.805 228.463 224.289 233.649 222.409 233.701C220.53 233.755 209.974 235.602 209.974 235.602L210.306 219.611Z" fill="#FFBD9D"/>
<path d="M154.081 207.435L153.947 235.11C154.278 240.893 159.393 245.362 165.371 245.04C165.969 245.041 166.567 244.959 167.08 244.795L211.842 235.938L211.788 218.176L173.177 225.39L172.699 206.553L154.081 207.435Z" fill="#FF6129"/>
<path d="M179.552 242.666C179.723 242.582 179.979 242.583 180.15 242.501L181.858 242.091L188.436 240.778L211.755 236.187L211.498 236.433L211.531 218.178L211.872 218.508L204.014 219.984L173.264 225.638L172.922 225.721L172.922 225.391C173.193 217.131 173.462 210.274 173.641 205.4C173.731 203.005 173.82 201.188 173.908 199.784C173.909 199.205 173.995 198.71 173.996 198.297C173.996 198.132 173.996 197.966 174.082 197.802L174.081 198.297L174.078 199.784C174.076 201.106 173.987 203.006 173.983 205.401C173.889 210.275 173.706 217.131 173.435 225.392L173.094 225.143L203.844 219.406L211.702 217.93L212.044 217.848L212.043 218.261L212.011 236.518L212.01 236.765L211.754 236.765L188.52 241.109L181.943 242.339L180.15 242.666L179.552 242.666Z" fill="#253138"/>
<path d="M207.402 237.501C207.318 236.593 207.32 235.685 207.407 234.775C207.495 233.124 207.584 230.811 207.589 228.251C207.593 225.69 207.597 223.377 207.515 221.643C207.432 220.733 207.433 219.826 207.52 218.916C207.774 219.826 207.943 220.734 207.941 221.644C208.109 223.296 208.19 225.691 208.185 228.252C208.18 230.812 208.006 233.124 207.832 234.86C207.746 235.685 207.574 236.593 207.402 237.501Z" fill="#F9F9F9"/>
<path d="M205.01 237.911C204.926 237.002 204.843 236.095 204.929 235.185C204.933 233.286 205.022 231.056 205.026 228.661L205.038 222.135C204.954 221.227 205.041 220.317 205.128 219.41C205.382 220.318 205.465 221.228 205.464 222.135C205.546 223.787 205.627 226.1 205.622 228.662C205.618 231.222 205.528 233.534 205.355 235.186C205.439 236.096 205.267 237.002 205.01 237.911Z" fill="#F9F9F9"/>
<path d="M198.427 241.563L285.193 242.389L301.419 198.115L238.223 198.528L223.62 238.342L198.427 238.672V241.563Z" fill="#455A63"/>
<path d="M264.185 224.053C262.221 223.804 260.94 222.07 261.196 220.17C261.452 218.271 263.245 217.032 265.21 217.279C267.174 217.527 268.455 219.261 268.199 221.162C267.942 222.978 266.149 224.3 264.185 224.053Z" fill="#FDFDFE"/>
<path d="M190.785 121.835C191.618 118.855 193.613 117.338 196.594 116.329C199.66 115.32 203.36 115.853 205.934 117.739C207.65 118.969 208.787 120.706 210.755 121.356C214.007 122.412 217.56 120.248 220.573 121.148C222.683 121.798 224.048 124.487 223.184 126.664C222.535 128.323 220.907 129.691 219.027 129.619C221.166 130.351 222.101 133.397 220.76 135.321C219.491 137.145 216.833 137.923 214.611 137.523C212.388 137.04 210.331 135.895 208.698 134.334C206.98 132.856 205.432 131.212 203.63 129.901C201.827 128.506 199.602 127.693 197.297 127.706C194.225 127.889 191.594 130.136 190.247 132.788C188.9 135.44 188.58 138.5 188.43 141.476C188.28 144.452 188.217 147.51 187.383 150.325C187.3 150.656 187.132 151.07 186.791 151.155C186.28 151.323 185.85 150.829 185.59 150.335C182.737 145.311 180.991 139.784 180.268 134.086C179.903 130.782 179.814 127.766 181.673 125.028C183.532 122.29 188.382 120.031 190.785 121.835Z" fill="#253138"/>
<path d="M185.059 135.625L183.674 169.093C183.458 174.795 184.285 183.217 193.586 183.163C201.687 182.538 203.939 175.172 204.158 169.883C204.225 167.404 204.296 165.256 204.379 165.007C204.379 165.007 213.164 164.543 214.214 156.11C214.697 152.059 214.979 143.63 215.096 135.946C215.208 127.766 208.93 120.78 200.478 120.003L199.624 119.925C190.577 119.565 185.167 126.784 185.059 135.625Z" fill="#FFBD9D"/>
<path d="M204.545 164.839C200.53 164.532 196.678 163.067 193.501 160.605C193.501 160.605 195.595 166.875 204.304 166.99L204.545 164.839Z" fill="#EB996D"/>
<path d="M212.023 141.331C211.942 141.984 211.348 142.477 210.664 142.399C209.981 142.403 209.465 141.835 209.461 141.265C209.542 140.612 210.136 140.119 210.819 140.197C211.502 140.193 212.018 140.679 212.023 141.331Z" fill="#253138"/>
<path d="M212.922 139.923C212.752 140.09 211.892 139.268 210.526 139.193C209.159 139.118 208.138 139.62 208.051 139.455C207.965 139.291 208.134 139.124 208.645 138.873C209.24 138.539 210.007 138.369 210.691 138.448C211.375 138.526 212.06 138.771 212.575 139.264C212.833 139.51 213.006 139.84 212.922 139.923Z" fill="#253138"/>
<path d="M198.919 140.503C198.838 141.156 198.244 141.649 197.561 141.571C196.878 141.575 196.362 141.007 196.357 140.355C196.438 139.702 197.032 139.21 197.715 139.287C198.399 139.365 198.914 139.851 198.919 140.503Z" fill="#253138"/>
<path d="M199.763 138.848C199.593 139.015 198.733 138.193 197.367 138.118C196 138.043 194.979 138.545 194.892 138.38C194.806 138.216 194.975 138.049 195.486 137.798C196.081 137.464 196.848 137.294 197.532 137.373C198.216 137.451 198.901 137.696 199.416 138.189C199.675 138.518 199.763 138.848 199.763 138.848Z" fill="#253138"/>
<path d="M203.592 148.9C204.358 148.731 205.04 148.727 205.808 148.722C206.149 148.72 206.49 148.718 206.573 148.47C206.656 148.139 206.569 147.809 206.481 147.479C206.22 146.654 205.957 145.747 205.695 144.84C204.645 141.129 203.942 138.076 204.112 138.075C204.283 138.074 205.242 141.043 206.291 144.754C206.554 145.661 206.816 146.568 206.992 147.393C207.166 147.806 207.169 148.301 207.002 148.715C206.918 148.964 206.663 149.13 206.408 149.132L205.811 149.135C205.043 149.14 204.275 149.061 203.592 148.9Z" fill="#253138"/>
<path d="M199.576 149.419C199.747 149.418 199.672 150.823 200.789 151.974C201.907 153.124 203.444 153.115 203.445 153.281C203.446 153.446 203.105 153.531 202.422 153.452C201.568 153.374 200.797 153.048 200.195 152.473C199.594 151.898 199.247 151.156 199.241 150.33C199.237 149.752 199.491 149.42 199.576 149.419Z" fill="#253138"/>
<path d="M200.583 133.805C200.415 134.137 199.132 133.813 197.51 133.905C195.888 133.997 194.609 134.253 194.436 133.923C194.349 133.758 194.603 133.426 195.199 133.174C196.645 132.421 198.439 132.411 199.895 133.147C200.409 133.392 200.668 133.722 200.583 133.805Z" fill="#253138"/>
<path d="M212.811 136.124C212.557 136.374 211.615 135.966 210.589 135.889C209.564 135.812 208.54 135.901 208.367 135.571C208.28 135.406 208.449 135.157 208.875 134.907C209.471 134.655 210.152 134.486 210.751 134.565C211.349 134.644 211.948 134.889 212.464 135.299C212.808 135.711 212.895 135.958 212.811 136.124Z" fill="#253138"/>
<path d="M185.09 141.911C184.919 141.83 179.27 139.631 178.884 145.417C178.499 151.203 184.553 150.425 184.552 150.259C184.55 150.094 185.09 141.911 185.09 141.911Z" fill="#FFBD9D"/>
<path d="M182.913 147.873C182.913 147.873 182.828 147.956 182.658 148.039C182.402 148.124 182.146 148.125 181.889 147.961C181.117 147.387 180.77 146.563 180.849 145.654C180.846 145.158 181.013 144.662 181.266 144.247C181.434 143.916 181.688 143.584 182.114 143.499C182.37 143.497 182.626 143.578 182.713 143.826C182.8 143.99 182.715 144.073 182.801 144.156C182.887 144.238 182.971 144.072 182.884 143.825C182.883 143.659 182.797 143.577 182.711 143.495C182.539 143.331 182.369 143.332 182.113 143.333C181.601 143.419 181.177 143.752 180.924 144.166C180.671 144.664 180.504 145.16 180.423 145.739C180.346 146.896 180.951 148.049 181.806 148.292C182.148 148.373 182.489 148.371 182.744 148.204C182.914 148.038 182.913 147.955 182.913 147.873Z" fill="#EB996D"/>
<path d="M217.237 134.369C213.229 134.971 209.207 133.672 206.37 130.878C204.478 128.906 203.093 126.269 200.525 125.209C198.726 124.559 196.764 124.653 195.062 125.406C193.36 126.16 191.832 127.326 190.56 128.656C191.787 133.111 190.198 137.749 188.605 142.056C188.439 142.552 188.185 142.967 187.76 143.3C186.996 143.8 185.968 143.228 185.451 142.57C184.674 141.417 184.238 140.015 184.228 138.692C183.95 135.554 184.269 132.411 185.272 129.347C186.276 126.366 188.134 123.628 190.682 121.63C193.993 119.214 198.085 118.199 202.186 118.671C206.202 119.143 210.056 120.939 212.978 123.65C214.438 124.881 215.558 126.362 216.253 128.093" fill="#253138"/>
<path d="M334.128 162.103L317.902 227.852H322.428L338.483 162.103H334.128Z" fill="#253138"/>
<path d="M327.893 205.385C327.636 206.624 335.238 242.472 335.238 242.472H331.566L325.758 214.058L327.893 205.385Z" fill="#253138"/>
<path d="M305.86 289.885H382.037V368.025H305.86V289.885Z" fill="#FF6129"/>
<path d="M382.037 301.284H385.795V304.918H382.037V301.284Z" fill="#253138"/>
<path d="M382.037 312.848H385.795V316.482H382.037V312.848Z" fill="#253138"/>
<path d="M382.037 324.329H385.795V327.963H382.037V324.329Z" fill="#253138"/>
<path d="M382.037 335.81H385.795V339.444H382.037V335.81Z" fill="#253138"/>
<path d="M385.965 325.32C386.306 325.237 386.733 325.155 387.076 325.072C388.1 324.907 389.211 324.742 390.321 324.742C391.943 324.742 393.565 325.155 394.932 325.898C396.726 326.972 397.664 328.872 397.494 330.854C397.408 331.845 397.067 332.837 396.554 333.663C396.043 334.489 395.359 335.149 394.591 335.645C393.31 336.554 391.773 337.132 390.149 337.38C389.124 337.545 388.014 337.545 386.905 337.462C386.478 337.462 386.135 337.38 385.708 337.297H386.905C387.93 337.297 389.04 337.214 390.065 337.049C391.602 336.801 393.054 336.223 394.335 335.315C395.872 334.241 396.897 332.589 397.067 330.772C397.237 328.954 396.383 327.137 394.675 326.146C393.31 325.32 391.857 324.907 390.235 324.907C389.211 324.907 388.1 324.907 387.076 325.072C386.733 325.32 386.306 325.403 385.965 325.32Z" fill="#253138"/>
<path d="M385.026 313.921C385.112 313.838 385.282 313.756 385.368 313.756C385.709 313.591 386.136 313.425 386.478 313.343C387.93 312.93 389.382 312.847 390.833 313.095C391.346 313.178 391.773 313.343 392.2 313.591C392.712 313.921 393.054 314.334 393.139 314.912C393.566 316.729 392.541 318.629 390.663 319.373C389.979 319.62 389.211 319.62 388.613 319.29C387.93 318.96 387.503 318.299 387.417 317.555C387.417 316.812 387.93 316.069 388.613 315.738C389.296 315.408 390.065 315.325 390.748 315.49C391.431 315.656 392.114 315.903 392.627 316.399C393.652 317.225 394.335 318.381 394.506 319.703C394.591 320.859 394.249 322.098 393.566 323.007C392.968 323.833 392.114 324.494 391.26 324.907C389.894 325.568 388.442 325.898 386.99 325.981C386.478 325.981 386.051 326.063 385.795 326.063H385.368C385.368 326.063 385.966 325.981 386.99 325.898C388.442 325.733 389.809 325.32 391.09 324.742C391.944 324.246 392.712 323.668 393.31 322.924C393.993 322.098 394.249 320.942 394.164 319.951C393.993 318.794 393.395 317.721 392.371 316.977C391.858 316.564 391.26 316.316 390.663 316.151C390.065 315.986 389.382 316.069 388.784 316.316C388.186 316.564 387.844 317.142 387.844 317.721C387.93 318.299 388.271 318.794 388.784 319.042C389.296 319.29 389.894 319.373 390.492 319.125C391.004 318.96 391.517 318.547 391.858 318.134C392.627 317.308 392.968 316.234 392.712 315.16C392.371 314.251 391.602 313.591 390.577 313.508C389.125 313.178 387.674 313.26 386.307 313.591C385.539 313.673 385.026 314.004 385.026 313.921Z" fill="#253138"/>
<path d="M385.026 302.77C385.282 302.687 385.624 302.606 385.88 302.606C386.649 302.523 387.417 302.606 388.186 302.854C389.296 303.184 390.236 303.845 391.004 304.671C391.944 305.745 392.456 307.065 392.456 308.469C392.541 309.874 392.114 311.196 391.26 312.353C390.577 313.261 389.638 313.921 388.528 314.334C387.844 314.664 387.076 314.747 386.307 314.747C386.051 314.747 385.709 314.747 385.453 314.664C386.478 314.664 387.503 314.418 388.442 314.005C389.467 313.592 390.321 312.848 391.004 312.022C392.541 309.875 392.456 306.9 390.748 304.835C390.065 304.009 389.125 303.432 388.101 303.019C387.076 302.854 386.051 302.687 385.026 302.77Z" fill="#253138"/>
<path d="M328.49 248.419C328.747 248.915 329.004 249.41 329.175 249.906C329.602 251.393 329.942 252.879 330.198 254.366C330.54 256.349 330.796 258.744 331.052 261.47C331.309 264.196 331.566 267.417 331.993 270.969C332.077 271.795 332.248 272.703 332.42 273.612C332.59 274.521 332.847 275.429 333.274 276.255C333.785 277.081 334.384 277.825 335.153 278.485C337.458 280.633 340.533 282.037 343.777 282.368C346.084 282.615 348.39 282.202 350.525 281.211C352.745 280.137 354.281 278.238 354.879 275.925C355.135 274.768 355.051 273.529 354.624 272.456C354.11 271.299 353.343 270.391 352.233 269.647C351.122 268.986 349.927 268.573 348.646 268.491C347.365 268.408 346.084 268.821 344.974 269.482C344.461 269.812 344.034 270.308 343.693 270.886C343.436 271.464 343.35 272.043 343.435 272.703C343.777 273.942 344.632 275.016 345.828 275.594C347.023 276.173 348.389 276.503 349.755 276.668C351.121 276.833 352.489 276.916 353.77 276.916C356.416 276.916 359.064 276.751 361.711 276.503C366.92 275.925 371.959 275.099 376.741 275.099C381.525 275.099 386.222 275.677 390.149 277.577C392.028 278.485 393.736 279.642 395.102 281.211C396.383 282.615 397.237 284.35 397.664 286.167C398.348 289.306 397.835 292.61 396.127 295.418C394.846 297.483 393.139 299.301 391.09 300.622C389.809 301.448 388.357 302.192 386.904 302.687C386.392 302.852 385.879 303.018 385.368 303.1L385.795 302.935C386.05 302.852 386.477 302.687 386.904 302.522C388.357 301.944 389.722 301.283 391.003 300.374C393.054 299.053 394.762 297.236 395.956 295.171C397.494 292.362 398.006 289.141 397.324 286.085C396.897 284.267 396.043 282.615 394.762 281.294C393.394 279.807 391.686 278.651 389.893 277.825C386.05 276.007 381.438 275.347 376.656 275.429C371.874 275.512 366.836 276.255 361.627 276.833C358.979 277.164 356.332 277.329 353.598 277.246C352.232 277.246 350.865 277.164 349.5 276.999C348.132 276.916 346.681 276.503 345.485 275.925C344.204 275.264 343.265 274.108 342.923 272.703C342.752 272.043 342.923 271.299 343.179 270.638C343.522 269.978 343.949 269.482 344.547 269.069C345.657 268.243 347.108 267.913 348.474 267.913C349.84 267.995 351.208 268.408 352.317 269.152C353.427 269.895 354.281 270.886 354.879 272.125C355.391 273.364 355.478 274.603 355.135 275.842C354.537 278.238 352.83 280.303 350.525 281.376C348.39 282.368 345.912 282.781 343.606 282.533C341.387 282.286 339.252 281.624 337.288 280.468C336.348 279.89 335.494 279.311 334.726 278.569C333.957 277.907 333.274 277.081 332.76 276.255C332.333 275.347 332.077 274.439 331.906 273.529C331.736 272.621 331.566 271.712 331.479 270.886C331.052 267.418 330.796 264.196 330.54 261.387C330.285 258.579 330.028 256.183 329.771 254.284C329.601 252.797 329.259 251.311 328.832 249.823C328.747 249.41 328.577 249.08 328.405 248.667C328.577 248.667 328.49 248.502 328.49 248.419Z" fill="#253138"/>
<path d="M377.766 364.803V364.473V363.481V359.599C377.766 356.213 377.767 351.257 377.682 344.979C377.682 332.424 377.595 314.5 377.595 293.024L377.766 293.189H308.935L309.19 292.941V364.72L309.019 364.555L358.894 364.638L372.898 364.72H376.572H377.853H376.572L372.813 364.803L358.894 364.886L308.848 364.968H308.679V364.803V293.024V292.776H308.935H377.766H377.937V292.941C377.937 314.417 377.853 332.424 377.853 344.979C377.853 351.257 377.852 356.213 377.766 359.599V363.399V364.39V364.803Z" fill="#253138"/>
<path d="M358.296 301.78C358.296 301.945 358.125 302.11 357.954 302.11C357.783 302.11 357.613 302.028 357.527 301.78C357.442 301.532 357.613 301.45 357.869 301.367H357.954C358.125 301.45 358.296 301.615 358.296 301.78Z" fill="#253138"/>
<path d="M360.26 301.78C360.26 301.945 360.089 302.11 359.919 302.11C359.748 302.11 359.577 302.028 359.492 301.78C359.406 301.532 359.577 301.45 359.833 301.367H359.919C360.089 301.45 360.26 301.615 360.26 301.78Z" fill="#253138"/>
<path d="M362.224 301.78C362.224 301.945 362.054 302.11 361.883 302.11C361.712 302.11 361.541 302.028 361.456 301.78C361.37 301.532 361.541 301.45 361.797 301.367H361.883C362.054 301.45 362.224 301.615 362.224 301.78Z" fill="#253138"/>
<path d="M364.189 301.779C364.189 301.944 364.018 302.109 363.847 302.109C363.675 302.109 363.504 301.944 363.504 301.779C363.504 301.614 363.675 301.449 363.847 301.449C364.018 301.449 364.189 301.614 364.189 301.779Z" fill="#253138"/>
<path d="M366.067 301.78C366.067 301.945 365.897 302.11 365.726 302.11C365.555 302.11 365.384 301.863 365.384 301.697C365.384 301.532 365.555 301.45 365.726 301.367C365.982 301.45 366.067 301.615 366.067 301.78Z" fill="#253138"/>
<path d="M368.032 301.78C368.032 301.945 367.861 302.11 367.69 302.11C367.518 302.11 367.347 301.863 367.347 301.697C367.347 301.532 367.518 301.45 367.69 301.367C367.861 301.45 368.032 301.615 368.032 301.78Z" fill="#253138"/>
<path d="M369.996 301.78C369.996 301.945 369.825 302.11 369.654 302.11C369.482 302.11 369.312 301.863 369.312 301.697C369.312 301.532 369.482 301.45 369.654 301.367C369.825 301.45 369.996 301.615 369.996 301.78Z" fill="#253138"/>
<path d="M368.715 302.77C368.904 302.77 369.056 302.918 369.056 303.1C369.056 303.282 368.904 303.431 368.715 303.431C368.527 303.431 368.373 303.282 368.373 303.1C368.373 302.918 368.527 302.77 368.715 302.77Z" fill="#253138"/>
<path d="M366.751 302.77C366.94 302.77 367.092 302.918 367.092 303.1C367.092 303.282 366.94 303.431 366.751 303.431C366.562 303.431 366.409 303.282 366.409 303.1C366.409 302.918 366.562 302.77 366.751 302.77Z" fill="#253138"/>
<path d="M365.128 303.101C365.128 303.266 364.957 303.431 364.786 303.431C364.615 303.431 364.445 303.266 364.445 303.101C364.445 302.936 364.615 302.771 364.786 302.771C364.957 302.688 365.128 302.853 365.128 303.101Z" fill="#253138"/>
<path d="M362.737 302.77C362.926 302.77 363.078 302.918 363.078 303.1C363.078 303.282 362.926 303.431 362.737 303.431C362.549 303.431 362.395 303.282 362.395 303.1C362.395 302.918 362.549 302.77 362.737 302.77Z" fill="#253138"/>
<path d="M360.773 302.77C360.962 302.77 361.114 302.918 361.114 303.1C361.114 303.282 360.962 303.431 360.773 303.431C360.584 303.431 360.431 303.282 360.431 303.1C360.431 302.918 360.584 302.77 360.773 302.77Z" fill="#253138"/>
<path d="M359.15 303.101C359.15 303.266 358.979 303.431 358.808 303.431C358.637 303.431 358.467 303.266 358.467 303.101C358.467 302.936 358.637 302.771 358.808 302.771C358.979 302.688 359.15 302.853 359.15 303.101Z" fill="#253138"/>
<path d="M358.296 304.505C358.296 304.67 358.125 304.835 357.954 304.835C357.783 304.835 357.613 304.67 357.613 304.505C357.613 304.34 357.783 304.175 357.954 304.175C358.125 304.175 358.296 304.34 358.296 304.505Z" fill="#253138"/>
<path d="M360.26 304.505C360.26 304.67 360.089 304.835 359.919 304.835C359.748 304.835 359.577 304.67 359.577 304.505C359.577 304.34 359.748 304.175 359.919 304.175C360.089 304.175 360.26 304.34 360.26 304.505Z" fill="#253138"/>
<path d="M362.224 304.505C362.224 304.67 362.054 304.835 361.883 304.835C361.712 304.835 361.541 304.67 361.541 304.505C361.541 304.34 361.712 304.175 361.883 304.175C362.054 304.175 362.224 304.34 362.224 304.505Z" fill="#253138"/>
<path d="M364.188 304.505C364.188 304.67 363.931 304.835 363.761 304.835C363.591 304.835 363.504 304.67 363.42 304.505C363.42 304.34 363.504 304.175 363.761 304.092C364.018 304.009 364.102 304.175 364.188 304.422V304.505Z" fill="#253138"/>
<path d="M366.067 304.505C366.067 304.67 365.897 304.835 365.726 304.835C365.555 304.835 365.384 304.67 365.384 304.505C365.384 304.34 365.555 304.175 365.726 304.175C365.982 304.175 366.067 304.34 366.067 304.505Z" fill="#253138"/>
<path d="M368.032 304.505C368.032 304.67 367.861 304.835 367.69 304.835C367.518 304.835 367.347 304.67 367.347 304.505C367.347 304.34 367.518 304.175 367.69 304.175C367.861 304.175 368.032 304.34 368.032 304.505Z" fill="#253138"/>
<path d="M369.996 304.505C369.996 304.67 369.825 304.835 369.654 304.835C369.482 304.835 369.312 304.67 369.312 304.505C369.312 304.34 369.482 304.175 369.654 304.175C369.825 304.175 369.996 304.34 369.996 304.505Z" fill="#253138"/>
<path d="M369.142 305.744C369.142 305.909 368.971 306.074 368.8 306.074C368.628 306.074 368.458 305.909 368.458 305.744C368.458 305.579 368.628 305.414 368.8 305.414C368.971 305.414 369.142 305.579 369.142 305.744Z" fill="#253138"/>
<path d="M367.092 305.744C367.092 305.909 366.921 306.074 366.751 306.074C366.58 306.074 366.409 305.909 366.409 305.744C366.409 305.579 366.58 305.414 366.751 305.414C366.921 305.414 367.092 305.579 367.092 305.744Z" fill="#253138"/>
<path d="M365.128 305.744C365.128 305.909 364.957 306.074 364.786 306.074C364.615 306.074 364.445 305.909 364.445 305.744C364.445 305.579 364.615 305.414 364.786 305.414C364.957 305.414 365.128 305.579 365.128 305.744Z" fill="#253138"/>
<path d="M363.164 305.744C363.164 305.909 362.993 306.074 362.822 306.074C362.65 306.074 362.48 305.909 362.48 305.744C362.48 305.579 362.65 305.414 362.822 305.414C362.993 305.414 363.164 305.579 363.164 305.744Z" fill="#253138"/>
<path d="M361.113 305.744C361.113 305.909 361.029 306.074 360.773 306.157C360.516 306.24 360.431 306.074 360.346 305.827V305.744C360.346 305.579 360.602 305.414 360.773 305.414C361.029 305.496 361.113 305.579 361.113 305.744Z" fill="#253138"/>
<path d="M359.15 305.744C359.15 305.909 358.979 306.074 358.808 306.074C358.637 306.074 358.467 305.909 358.467 305.744C358.467 305.579 358.637 305.414 358.808 305.414C358.979 305.414 359.15 305.579 359.15 305.744Z" fill="#253138"/>
<path d="M358.296 307.23C358.296 307.395 358.125 307.56 357.954 307.56C357.783 307.56 357.613 307.395 357.613 307.23C357.613 307.065 357.783 306.9 357.954 306.9C358.125 306.9 358.296 306.982 358.296 307.23Z" fill="#253138"/>
<path d="M360.26 307.23C360.26 307.395 360.089 307.56 359.919 307.56C359.748 307.56 359.577 307.395 359.577 307.23C359.577 307.065 359.748 306.9 359.919 306.9C360.089 306.9 360.26 306.982 360.26 307.23Z" fill="#253138"/>
<path d="M362.224 307.23C362.224 307.395 362.054 307.56 361.883 307.56C361.712 307.56 361.541 307.395 361.541 307.23C361.541 307.065 361.712 306.9 361.883 306.9C362.054 306.9 362.224 306.982 362.224 307.23Z" fill="#253138"/>
<path d="M364.188 307.231C364.188 307.396 364.102 307.561 363.847 307.644C363.591 307.727 363.504 307.561 363.42 307.314V307.231C363.42 307.066 363.675 306.901 363.847 306.901C364.018 306.901 364.102 307.066 364.188 307.231Z" fill="#253138"/>
<path d="M366.067 307.231C366.067 307.396 365.897 307.561 365.726 307.561C365.555 307.561 365.384 307.396 365.384 307.231C365.384 307.066 365.555 306.901 365.726 306.901C365.982 306.818 366.067 306.983 366.067 307.231Z" fill="#253138"/>
<path d="M368.032 307.231C368.032 307.396 367.861 307.561 367.69 307.561C367.518 307.561 367.347 307.396 367.347 307.231C367.347 307.066 367.518 306.901 367.69 306.901C367.861 306.818 368.032 306.983 368.032 307.231Z" fill="#253138"/>
<path d="M369.996 307.231C369.996 307.396 369.825 307.561 369.654 307.561C369.482 307.561 369.312 307.396 369.312 307.231C369.312 307.066 369.482 306.901 369.654 306.901C369.825 306.818 369.996 306.983 369.996 307.231Z" fill="#253138"/>
<path d="M368.715 308.139C368.904 308.139 369.056 308.287 369.056 308.469C369.056 308.651 368.904 308.8 368.715 308.8C368.527 308.8 368.373 308.651 368.373 308.469C368.373 308.287 368.527 308.139 368.715 308.139Z" fill="#253138"/>
<path d="M366.751 308.139C366.94 308.139 367.092 308.287 367.092 308.469C367.092 308.651 366.94 308.8 366.751 308.8C366.562 308.8 366.409 308.651 366.409 308.469C366.409 308.287 366.562 308.139 366.751 308.139Z" fill="#253138"/>
<path d="M365.128 308.47C365.128 308.635 364.957 308.8 364.786 308.8C364.615 308.8 364.444 308.718 364.359 308.47C364.274 308.222 364.444 308.14 364.701 308.057H364.786C364.957 308.14 365.128 308.305 365.128 308.47Z" fill="#253138"/>
<path d="M362.737 308.139C362.926 308.139 363.078 308.287 363.078 308.469C363.078 308.651 362.926 308.8 362.737 308.8C362.549 308.8 362.395 308.651 362.395 308.469C362.395 308.287 362.549 308.139 362.737 308.139Z" fill="#253138"/>
<path d="M360.773 308.139C360.962 308.139 361.114 308.287 361.114 308.469C361.114 308.651 360.962 308.8 360.773 308.8C360.584 308.8 360.431 308.651 360.431 308.469C360.431 308.287 360.584 308.139 360.773 308.139Z" fill="#253138"/>
<path d="M359.15 308.47C359.15 308.635 358.979 308.8 358.808 308.8C358.637 308.8 358.467 308.553 358.467 308.387C358.467 308.222 358.637 308.14 358.808 308.057C358.979 308.14 359.15 308.305 359.15 308.47Z" fill="#253138"/>
<path d="M331.395 224.631C331.907 224.631 332.334 224.714 332.761 224.879C334.042 225.292 335.238 226.035 336.092 227.026C337.458 228.596 338.483 230.496 339.081 232.478C339.935 235.121 340.533 237.764 340.96 240.49C341.899 247.511 342.07 254.697 341.472 261.801C341.387 263.866 340.703 265.931 339.593 267.666C338.995 268.574 338.141 269.318 337.202 269.896C336.177 270.474 335.067 270.804 333.871 270.639C332.676 270.557 331.566 270.061 330.712 269.235C330.285 268.822 329.943 268.326 329.772 267.748C329.601 267.17 329.601 266.592 329.772 266.014C330.114 264.857 330.968 263.866 332.163 263.453C332.761 263.205 333.444 263.205 334.042 263.453C334.64 263.701 335.152 264.031 335.579 264.527C336.348 265.518 336.604 266.757 336.433 267.913C336.263 269.07 335.836 270.144 335.152 271.135C331.651 277.082 323.88 279.312 317.645 276.008C315.852 275.017 314.315 273.778 313.034 272.209C311.838 270.722 310.899 269.152 310.216 267.418C309.105 264.279 308.422 260.975 308.337 257.671C308.166 254.615 308.337 251.889 307.995 249.494C307.824 248.42 307.568 247.346 307.227 246.272C306.885 245.364 306.373 244.62 305.775 243.877C304.921 242.886 303.896 242.06 302.615 241.564C302.188 241.399 301.676 241.316 301.249 241.234C301.761 241.234 302.188 241.316 302.615 241.481C303.896 241.894 305.006 242.72 305.86 243.712C306.458 244.455 306.97 245.281 307.397 246.19C307.824 247.263 308.081 248.337 308.251 249.494C308.593 251.889 308.422 254.615 308.593 257.671C308.678 260.975 309.362 264.196 310.472 267.335C311.155 269.07 312.094 270.639 313.205 272.043C314.4 273.53 315.937 274.852 317.731 275.76C323.794 278.899 331.309 276.752 334.64 270.97C335.238 269.978 335.665 268.987 335.836 267.831C336.006 266.757 335.75 265.601 335.067 264.692C334.725 264.279 334.298 263.949 333.786 263.701C333.274 263.536 332.676 263.536 332.163 263.701C331.139 264.114 330.37 264.94 330.028 266.014C329.772 267.087 330.114 268.161 330.882 268.905C331.651 269.648 332.676 270.144 333.786 270.226C334.896 270.309 335.921 270.061 336.86 269.483C337.8 268.905 338.568 268.244 339.166 267.335C340.276 265.601 340.874 263.618 341.045 261.636C341.643 254.615 341.472 247.511 340.618 240.49C340.191 237.764 339.593 235.121 338.825 232.561C338.312 230.578 337.287 228.761 335.921 227.192C335.067 226.2 333.957 225.457 332.676 225.044C332.334 224.879 331.822 224.714 331.395 224.631Z" fill="#DFDFDF"/>
<path d="M296.295 236.608H324.646V241.812H296.295V236.608Z" fill="#DFDFDF"/>
<path d="M82.8807 290.628H119.859V367.694H82.8807V290.628Z" fill="#253138"/>
<path d="M116.699 359.517V359.187V358.195V354.478C116.699 351.257 116.699 346.631 116.614 340.684C116.614 328.955 116.528 312.435 116.528 293.189L116.699 293.354H85.7843L86.0405 293.107C86.0405 318.878 86.0405 342.254 85.9551 359.352L85.7843 359.187L108.415 359.269H114.564H116.187C116.614 359.517 116.785 359.517 116.699 359.517L116.272 359.434H114.65H108.501L85.7843 359.517H85.6135V359.352C85.6135 342.171 85.6135 318.795 85.5281 293.107V292.941H116.955V293.107C116.955 312.435 116.87 328.955 116.87 340.767C116.87 346.631 116.87 351.257 116.785 354.478V358.113V359.021C116.785 359.187 116.699 359.517 116.699 359.517Z" fill="#455A63"/>
<path d="M114.82 298.888V298.062C114.82 297.566 114.82 296.74 114.735 295.832L114.82 295.914C110.038 295.997 99.7899 295.997 87.9193 295.997L88.1755 295.749V297.319V298.805L88.0047 298.558C95.5199 298.558 102.267 298.64 107.049 298.64L112.771 298.723H114.308H114.906H114.393H112.856L107.22 298.805C102.352 298.888 95.6053 298.888 88.0047 298.888H87.7485V295.667L88.0047 295.419C99.8753 295.419 110.123 295.501 114.906 295.501V295.584C114.906 296.575 114.906 297.319 114.82 297.897V298.888Z" fill="#455A63"/>
<path d="M90.5667 301.119C90.5667 301.202 89.9689 301.367 89.3711 301.367C88.7733 301.367 88.0901 301.284 88.0901 301.119C88.0901 300.954 88.6879 300.871 89.3711 300.871C90.0543 300.871 90.5667 300.954 90.5667 301.119Z" fill="#455A63"/>
<path d="M114.137 305.083C114.137 305.166 108.415 305.331 101.327 305.331C94.239 305.331 88.5172 305.248 88.5172 305.083C88.5172 304.918 94.239 304.835 101.327 304.835C108.415 304.835 114.137 304.918 114.137 305.083Z" fill="#455A63"/>
<path d="M114.223 309.874C114.223 309.957 108.586 310.122 101.669 310.122C94.7513 310.122 89.1149 310.039 89.1149 309.874C89.1149 309.709 94.7513 309.626 101.669 309.626C108.586 309.626 114.223 309.709 114.223 309.874Z" fill="#455A63"/>
<path d="M101.327 319.125C102.459 319.125 103.377 320.012 103.377 321.107C103.377 322.203 102.459 323.09 101.327 323.09C100.195 323.09 99.2775 322.203 99.2775 321.107C99.2775 320.012 100.195 319.125 101.327 319.125Z" fill="#FF6129"/>
<path d="M95.5199 321.025C94.6659 321.273 93.7265 321.273 92.7871 321.273C91.8477 321.355 90.9937 321.273 90.1397 321.025C90.9937 320.777 91.9331 320.777 92.8725 320.777C93.7265 320.777 94.6659 320.777 95.5199 321.025Z" fill="#455A63"/>
<path d="M112.088 320.447C111.234 320.695 110.38 320.695 109.526 320.695C108.672 320.777 107.818 320.695 106.964 320.447C107.818 320.199 108.672 320.199 109.526 320.199C110.38 320.199 111.234 320.282 112.088 320.447Z" fill="#455A63"/>
<path d="M84.1617 329.285C83.7347 329.202 83.2223 329.12 82.7953 329.037C81.5143 328.707 80.2333 328.129 79.1231 327.385C77.3297 326.229 75.8779 324.659 74.6823 322.925C73.2305 320.612 72.1203 318.051 71.4371 315.326C70.5831 312.104 70.2415 308.8 70.4123 305.496C70.6685 301.614 71.9495 297.98 74.3407 294.841C75.6217 293.189 77.1589 291.702 78.9523 290.546C79.8917 289.967 80.9165 289.472 81.9413 289.141C83.0515 288.811 84.0763 288.563 85.2719 288.398C87.4923 288.068 89.7981 288.15 92.1039 287.985C94.4097 287.902 96.7155 287.407 98.8505 286.498C100.986 285.59 102.523 283.69 103.035 281.542C103.889 277.825 101.498 274.026 97.6549 273.2C97.0571 273.034 96.4593 273.034 95.8615 273.034C94.8367 273.117 93.8119 273.447 93.0433 274.026C92.2747 274.604 91.8477 275.512 91.8477 276.504C92.1039 278.403 93.6411 279.89 95.6907 280.055C97.5695 280.055 99.3629 279.312 100.559 277.908C101.669 276.586 102.523 275.099 102.95 273.447C103.377 271.961 103.718 270.391 103.975 268.822C104.572 264.114 104.743 259.323 104.402 254.532C104.316 252.88 104.231 251.558 104.231 250.65C104.231 250.237 104.231 249.906 104.145 249.659V249.328C104.145 249.411 104.231 249.576 104.231 249.659C104.231 249.906 104.316 250.237 104.316 250.65C104.402 251.558 104.487 252.88 104.572 254.532C104.914 259.323 104.829 264.114 104.231 268.904C103.975 270.474 103.718 272.043 103.291 273.613C102.864 275.347 102.01 276.917 100.9 278.238C99.6191 279.725 97.7403 280.551 95.6907 280.468C93.4703 280.303 91.7623 278.651 91.5061 276.586C91.4207 275.512 91.9331 274.439 92.8725 273.778C93.7265 273.117 94.8367 272.704 95.9469 272.621C100.217 272.539 103.633 275.843 103.718 279.973C103.718 281.707 103.121 283.359 102.01 284.764C101.242 285.672 100.217 286.416 99.1921 286.911C97.0571 287.902 94.6659 288.398 92.2747 288.481C89.9689 288.646 87.6631 288.563 85.4427 288.894C84.3325 289.059 83.3077 289.307 82.1975 289.637C81.1727 289.967 80.2333 290.463 79.2939 291.041C77.5005 292.115 75.9633 293.519 74.7677 295.171C72.4619 298.227 71.1809 301.862 70.9247 305.661C70.6685 308.965 71.0101 312.269 71.8641 315.408C72.4619 318.051 73.5721 320.612 75.0239 322.925C76.1341 324.659 77.5859 326.146 79.2939 327.385C80.4041 328.129 81.5997 328.707 82.8807 329.12C83.3077 329.202 83.6493 329.285 83.9055 329.368C83.9055 329.202 84.0763 329.202 84.1617 329.285Z" fill="#253138"/>
<path d="M71.5225 171.106H159.143V229.339H71.5225V171.106Z" fill="#253138"/>
<path d="M108.586 221.409H120.542V243.381H108.586V221.409Z" fill="#253138"/>
<path d="M50.4699 311.484C53.5443 310.08 55.7725 309.94 59.0055 310.436C60.8088 310.693 63.4178 311.711 64.8333 312.863C66.2429 314.012 67.6841 316.596 66.3177 317.752C65.3783 318.33 60.9439 316.158 59.8337 316.075C57.1863 316.075 55.6264 316.174 53.9073 318.012C52.7117 318.921 52.3382 320.883 50.9718 321.38C49.52 321.709 47.4397 321.603 46.6711 320.282C45.9879 319.043 45.3559 317.538 45.7829 316.134C46.1245 314.151 48.6765 312.393 50.4699 311.484Z" fill="#65AC18"/>
<path d="M42.7427 298.475C44.6215 301.037 47.9279 300.25 49.6359 298.68C51.3439 297.111 52.1274 294.339 52.7252 292.108C53.9687 287.655 54.0621 283.964 54.5634 278.626C54.9161 276.943 55.3458 272.864 54.2356 271.708C53.1254 270.553 51.66 272.651 50.5071 274.066C49.2586 275.645 47.9707 278.035 46.9238 279.679C44.2282 283.844 41.7464 286.694 41.4099 291.052C41.1035 293.566 41.2055 296.41 42.7427 298.475Z" fill="#417505"/>
<path d="M37.6187 302.192C39.5829 299.714 39.9849 296.585 39.0455 293.694C38.0207 290.803 36.3377 288.15 33.8611 286.169C30.6552 283.43 28.7044 281.938 25.5227 281.2C23.0221 280.584 19.7331 280.71 17.5064 281.088C16.0769 281.327 12.5772 282.815 11.8086 284.054C10.7838 285.872 13.555 288.151 15.4662 289.082C18.5406 290.578 21.8479 294.177 24.1537 297.068C26.0325 299.381 27.6779 302.077 30.4961 303.067C33.3143 304.058 36.5085 303.762 37.9603 301.863" fill="#7ED321"/>
<path d="M42.5719 337.297C42.6573 336.884 42.7427 336.555 42.7427 336.142C42.8281 335.316 42.9135 334.241 43.0843 332.919C43.2551 331.35 43.5113 329.781 43.8529 328.211C44.2799 326.311 44.8777 324.494 45.6463 322.677C46.4149 320.861 47.3543 319.209 48.5499 317.721C49.4893 316.482 50.7703 315.408 52.2221 314.747C53.1615 314.253 54.2717 313.921 55.2965 313.84C55.7235 313.84 56.0651 313.756 56.4921 313.674H55.2965C54.1863 313.756 53.0761 314.004 52.0513 314.5C50.5141 315.16 49.2331 316.234 48.2083 317.473C46.9273 319.043 45.9879 320.695 45.2193 322.594C44.4507 324.412 43.9383 326.311 43.5113 328.211C43.1697 329.781 42.9989 331.35 42.8281 332.919C42.7427 334.241 42.6573 335.397 42.6573 336.142C42.5719 336.471 42.5719 336.884 42.5719 337.297Z" fill="#253138"/>
<path d="M42.8281 334.819V334.324V332.754C42.8281 331.433 42.8281 329.45 42.9135 327.056C42.9989 322.264 43.4259 317.06 44.2799 309.791C45.0485 302.936 46.1587 294.923 47.2689 289.72C47.5251 288.563 47.6959 287.489 47.9521 286.582C48.2083 285.672 48.3791 284.846 48.5499 284.185C48.7207 283.525 48.8061 283.029 48.8915 282.699C48.9769 282.533 48.9769 282.368 48.9769 282.203C48.8915 282.368 48.8061 282.533 48.8061 282.699C48.6353 283.112 48.5499 283.607 48.3791 284.185C48.2083 284.764 47.9521 285.672 47.6959 286.582C47.4397 287.489 47.1835 288.563 46.9273 289.72C45.5609 295.832 44.5361 302.027 43.8529 308.305C42.9989 315.573 42.5719 322.181 42.5719 327.056C42.5719 329.45 42.5719 331.433 42.6573 332.754C42.6573 333.415 42.7427 333.911 42.7427 334.324C42.7427 334.49 42.7427 334.654 42.8281 334.819Z" fill="#253138"/>
<path d="M42.8281 322.016C42.9135 321.438 42.9135 320.942 42.8281 320.364C42.7427 318.877 42.5719 317.391 42.3157 315.986C41.9741 313.84 41.4617 311.691 40.8639 309.626C40.1807 307.066 39.2413 304.505 38.1311 302.027C36.2523 297.484 33.4341 293.354 30.0181 289.802C29.4203 289.224 28.7371 288.647 28.1393 288.068C27.8831 287.821 27.5415 287.572 27.2853 287.408L26.5167 286.911C26.0897 286.582 25.5773 286.25 25.1503 286.003C26.7729 287.242 28.3101 288.563 29.7619 289.967C33.0925 293.603 35.7399 297.649 37.7041 302.192C38.8143 304.588 39.7537 307.148 40.5223 309.71C41.2055 312.104 41.7179 314.253 42.0595 316.069C42.4011 317.886 42.5719 319.373 42.7427 320.448C42.6573 320.942 42.7427 321.438 42.8281 322.016Z" fill="#253138"/>
<path d="M30.0181 344.649L31.2991 362.242H54.7841L56.0651 344.649H30.0181Z" fill="#253138"/>
<path d="M27.7123 337.71H58.8833V344.649H27.7123V337.71Z" fill="#253138"/>
<path d="M27.7123 361.582V363.481H29.1641H58.3709V361.582H27.7123Z" fill="#455A63"/>
<path d="M30.6159 366.868L29.1641 363.481H57.2607L55.5527 366.868H30.6159Z" fill="#455A63"/>
<path d="M55.6381 350.431C55.6381 350.514 55.5527 350.514 55.5527 350.597L55.2111 351.01L53.8447 352.662L53.7593 352.744L53.6739 352.662L50.3433 348.2H50.5141L47.1835 352.744L47.0981 352.909L47.0127 352.744C45.8171 351.34 44.4507 349.852 43.0843 348.2H43.3405C43.2551 348.282 43.1697 348.366 43.1697 348.448L39.6683 352.662L39.5829 352.826L39.4975 352.662L36.1669 348.119H36.3377L32.2385 352.662L32.1531 352.744L32.0677 352.662C31.5553 351.836 31.1283 351.092 30.7867 350.597L30.4451 350.018L30.3597 349.852C30.3597 349.852 30.4451 349.934 30.5305 350.018L30.8721 350.514L32.2385 352.579H32.0677L36.0815 348.035L36.1669 347.953L36.2523 348.035L39.5829 352.496H39.3267L42.8281 348.282L42.9989 348.035L43.0843 347.869L43.1697 348.035L47.0981 352.579H46.8419L50.1725 348.119L50.2579 347.953L50.3433 348.119L53.5885 352.662H53.6739L55.1257 351.01L55.4673 350.597C55.5527 350.431 55.6381 350.348 55.6381 350.431Z" fill="#DFDFDF"/>
<path d="M56.4067 344.483C56.4067 344.566 50.5141 344.649 43.3405 344.649C36.1669 344.649 30.2743 344.566 30.2743 344.483C30.2743 344.401 36.1669 344.318 43.3405 344.318C50.5141 344.318 56.4067 344.483 56.4067 344.483Z" fill="#455A63"/>
<path d="M57.6023 363.729C57.6023 363.813 51.1973 363.894 43.3405 363.894C35.4837 363.894 29.0787 363.813 29.0787 363.729C29.0787 363.647 35.4837 363.564 43.3405 363.564C51.1973 363.564 57.6023 363.647 57.6023 363.729Z" fill="#253138"/>
<path d="M80.4895 240.986V248.916H125.666V366.538H129.851V248.916L318.67 249.824V366.538H322.684V249.575L351.891 249.824V240.325L80.4895 240.986Z" fill="#253138"/>
<path d="M109.355 247.345L127.203 259.736L125.666 261.223L107.647 248.088L109.355 247.345Z" fill="#253138"/>
<path d="M339.508 248.502L318.841 262.792L320.379 264.196L341.216 249.246L339.508 248.502Z" fill="#253138"/>
<path d="M146.162 238.095H192.876V241.399H146.162V238.095Z" fill="#253138"/>
</svg>
