<svg xmlns="http://www.w3.org/2000/svg" x="0px" y="0px"
width="30" height="30"
viewBox="0 0 172 172"
style=" fill:#000000;"><g fill="none" fill-rule="nonzero" stroke="none" stroke-width="1" stroke-linecap="butt" stroke-linejoin="miter" stroke-miterlimit="10" stroke-dasharray="" stroke-dashoffset="0" font-family="none" font-weight="none" font-size="none" text-anchor="none" style="mix-blend-mode: normal"><path d="M0,172v-172h172v172z" fill="none"></path><g><path d="M107.5,17.91667v-0.29383c-6.78683,-2.13208 -14.00725,-3.2895 -21.5,-3.2895c-39.5815,0 -71.66667,32.08517 -71.66667,71.66667c0,2.41875 0.129,4.80883 0.36192,7.16667h92.80475z" fill="#3f51b5"></path><path d="M108.29908,17.91667c-0.27233,-0.08958 -0.52675,-0.20783 -0.79908,-0.29383v0.29383z" fill="none"></path><path d="M107.5,39.41667h32.895c-3.42925,-3.999 -7.30283,-7.58592 -11.52758,-10.75h-21.36742z" fill="#eceff1"></path><path d="M157.30475,93.16667h-49.80475h-92.80475c0.3655,3.68367 1.08575,7.25267 1.98875,10.75h138.63558c0.89942,-3.49733 1.61967,-7.06633 1.98517,-10.75z" fill="#eceff1"></path><path d="M137.13775,136.16667h-102.2755c4.03842,4.11725 8.59283,7.70058 13.51992,10.75h75.23567c4.92708,-3.04942 9.4815,-6.63275 13.51992,-10.75z" fill="#eceff1"></path><path d="M151.66458,114.66667h-131.32917c1.64475,3.7625 3.60125,7.35658 5.84083,10.75h119.6475c2.23958,-3.39342 4.1925,-6.9875 5.84083,-10.75z" fill="#eceff1"></path><path d="M107.5,60.91667h45.56567c-1.40108,-3.741 -3.08525,-7.33508 -5.06325,-10.75h-40.50242z" fill="#eceff1"></path><path d="M107.5,82.41667h49.9875c-0.18275,-3.655 -0.54825,-7.25983 -1.25775,-10.75h-48.72975z" fill="#eceff1"></path><path d="M107.5,28.66667h21.371c-6.17408,-4.6225 -13.08275,-8.299 -20.57192,-10.75h-0.79908z" fill="#f44336"></path><path d="M107.5,50.16667h40.50242c-2.21092,-3.81983 -4.7515,-7.4175 -7.60383,-10.75h-32.89858z" fill="#f44336"></path><path d="M107.5,71.66667h48.72617c-0.7525,-3.70517 -1.86333,-7.27417 -3.16408,-10.75h-45.56208z" fill="#f44336"></path><path d="M107.5,93.16667h49.80475c0.23292,-2.35783 0.36192,-4.74792 0.36192,-7.16667c0,-1.21117 -0.12183,-2.39008 -0.17917,-3.58333h-49.9875z" fill="#f44336"></path><path d="M155.316,103.91667h-138.632c0.95317,3.70158 2.14642,7.30642 3.655,10.75h131.32558c1.505,-3.44358 2.69825,-7.04842 3.65142,-10.75z" fill="#f44336"></path><path d="M145.82375,125.41667h-119.6475c2.54775,3.86283 5.45742,7.4605 8.686,10.75h102.27908c3.225,-3.2895 6.13467,-6.88717 8.68242,-10.75z" fill="#f44336"></path><path d="M48.38217,146.91667c10.9435,6.7725 23.8005,10.75 37.61783,10.75c13.81733,0 26.67433,-3.9775 37.61783,-10.75z" fill="#f44336"></path><path d="M36.72917,46.58333l1.66625,3.54033l3.70875,0.559l-2.6875,2.75917l0.645,3.8915l-3.3325,-1.83467l-3.3325,1.83467l0.645,-3.8915l-2.6875,-2.75917l3.70875,-0.559z" fill="#ffffff"></path><path d="M51.0625,46.58333l1.66625,3.54033l3.70875,0.559l-2.6875,2.75917l0.645,3.8915l-3.3325,-1.83467l-3.3325,1.83467l0.645,-3.8915l-2.6875,-2.75917l3.70875,-0.559z" fill="#ffffff"></path><path d="M22.39583,55.49867l3.3325,1.83467l-0.645,-3.8915l2.6875,-2.75917l-3.70875,-0.559l-0.01433,-0.03583c-1.1825,2.03533 -2.26825,4.13158 -3.25008,6.28875z" fill="#ffffff"></path><path d="M65.39583,46.58333l1.66625,3.54033l3.70875,0.559l-2.6875,2.75917l0.645,3.8915l-3.3325,-1.83467l-3.3325,1.83467l0.645,-3.8915l-2.6875,-2.75917l3.70875,-0.559z" fill="#ffffff"></path><path d="M79.72917,46.58333l1.66625,3.54033l3.70875,0.559l-2.6875,2.75917l0.645,3.8915l-3.3325,-1.83467l-3.3325,1.83467l0.645,-3.8915l-2.6875,-2.75917l3.70875,-0.559z" fill="#ffffff"></path><path d="M93.16667,46.58333l1.66625,3.54033l3.70875,0.559l-2.6875,2.75917l0.645,3.8915l-3.3325,-1.83467l-3.3325,1.83467l0.645,-3.8915l-2.6875,-2.75917l3.70875,-0.559z" fill="#ffffff"></path><path d="M36.72917,75.25l1.66625,3.54033l3.70875,0.559l-2.6875,2.75917l0.645,3.8915l-3.3325,-1.83467l-3.3325,1.83467l0.645,-3.8915l-2.6875,-2.75917l3.70875,-0.559z" fill="#ffffff"></path><path d="M51.0625,75.25l1.66625,3.54033l3.70875,0.559l-2.6875,2.75917l0.645,3.8915l-3.3325,-1.83467l-3.3325,1.83467l0.645,-3.8915l-2.6875,-2.75917l3.70875,-0.559z" fill="#ffffff"></path><path d="M65.39583,75.25l1.66625,3.54033l3.70875,0.559l-2.6875,2.75917l0.645,3.8915l-3.3325,-1.83467l-3.3325,1.83467l0.645,-3.8915l-2.6875,-2.75917l3.70875,-0.559z" fill="#ffffff"></path><path d="M22.39583,75.25l1.66625,3.54033l3.70875,0.559l-2.6875,2.75917l0.645,3.8915l-3.3325,-1.83467l-3.3325,1.83467l0.645,-3.8915l-2.6875,-2.75917l3.70875,-0.559z" fill="#ffffff"></path><path d="M79.72917,75.25l1.66625,3.54033l3.70875,0.559l-2.6875,2.75917l0.645,3.8915l-3.3325,-1.83467l-3.3325,1.83467l0.645,-3.8915l-2.6875,-2.75917l3.70875,-0.559z" fill="#ffffff"></path><path d="M93.16667,75.25l1.66625,3.54033l3.70875,0.559l-2.6875,2.75917l0.645,3.8915l-3.3325,-1.83467l-3.3325,1.83467l0.645,-3.8915l-2.6875,-2.75917l3.70875,-0.559z" fill="#ffffff"></path><path d="M40.3125,60.91667l1.66625,3.54033l3.70875,0.559l-2.6875,2.75917l0.645,3.8915l-3.3325,-1.83467l-3.3325,1.83467l0.645,-3.8915l-2.6875,-2.75917l3.70875,-0.559z" fill="#ffffff"></path><path d="M54.64583,60.91667l1.66625,3.54033l3.70875,0.559l-2.6875,2.75917l0.645,3.8915l-3.3325,-1.83467l-3.3325,1.83467l0.645,-3.8915l-2.6875,-2.75917l3.70875,-0.559z" fill="#ffffff"></path><path d="M25.97917,60.91667l1.66625,3.54033l3.70875,0.559l-2.6875,2.75917l0.645,3.8915l-3.3325,-1.83467l-3.3325,1.83467l0.645,-3.8915l-2.6875,-2.75917l3.70875,-0.559z" fill="#ffffff"></path><path d="M68.97917,60.91667l1.66625,3.54033l3.70875,0.559l-2.6875,2.75917l0.645,3.8915l-3.3325,-1.83467l-3.3325,1.83467l0.645,-3.8915l-2.6875,-2.75917l3.70875,-0.559z" fill="#ffffff"></path><path d="M83.3125,60.91667l1.66625,3.54033l3.70875,0.559l-2.6875,2.75917l0.645,3.8915l-3.3325,-1.83467l-3.3325,1.83467l0.645,-3.8915l-2.6875,-2.75917l3.70875,-0.559z" fill="#ffffff"></path><path d="M96.75,60.91667l1.66625,3.54033l3.70875,0.559l-2.6875,2.75917l0.645,3.8915l-3.3325,-1.83467l-3.3325,1.83467l0.645,-3.8915l-2.6875,-2.75917l3.70875,-0.559z" fill="#ffffff"></path><path d="M40.3125,32.25l1.66625,3.54033l3.70875,0.559l-2.6875,2.75917l0.645,3.8915l-3.3325,-1.83467l-3.3325,1.83467l0.645,-3.8915l-2.6875,-2.75917l3.70875,-0.559z" fill="#ffffff"></path><path d="M54.64583,32.25l1.66625,3.54033l3.70875,0.559l-2.6875,2.75917l0.645,3.8915l-3.3325,-1.83467l-3.3325,1.83467l0.645,-3.8915l-2.6875,-2.75917l3.70875,-0.559z" fill="#ffffff"></path><path d="M68.97917,32.25l1.66625,3.54033l3.70875,0.559l-2.6875,2.75917l0.645,3.8915l-3.3325,-1.83467l-3.3325,1.83467l0.645,-3.8915l-2.6875,-2.75917l3.70875,-0.559z" fill="#ffffff"></path><path d="M83.3125,32.25l1.66625,3.54033l3.70875,0.559l-2.6875,2.75917l0.645,3.8915l-3.3325,-1.83467l-3.3325,1.83467l0.645,-3.8915l-2.6875,-2.75917l3.70875,-0.559z" fill="#ffffff"></path><path d="M96.75,32.25l1.66625,3.54033l3.70875,0.559l-2.6875,2.75917l0.645,3.8915l-3.3325,-1.83467l-3.3325,1.83467l0.645,-3.8915l-2.6875,-2.75917l3.70875,-0.559z" fill="#ffffff"></path><path d="M54.395,28.66667l-0.645,-3.8915l2.6875,-2.75917l-1.97442,-0.29742c-2.11058,1.03558 -4.15667,2.1715 -6.14542,3.40417l-0.58767,3.54392l3.3325,-1.83467z" fill="#ffffff"></path><path d="M65.39583,17.91667l1.66625,3.54033l3.70875,0.559l-2.6875,2.75917l0.645,3.8915l-3.3325,-1.83467l-3.3325,1.83467l0.645,-3.8915l-2.6875,-2.75917l3.70875,-0.559z" fill="#ffffff"></path><path d="M79.72917,17.91667l1.66625,3.54033l3.70875,0.559l-2.6875,2.75917l0.645,3.8915l-3.3325,-1.83467l-3.3325,1.83467l0.645,-3.8915l-2.6875,-2.75917l3.70875,-0.559z" fill="#ffffff"></path><path d="M93.16667,17.91667l1.66625,3.54033l3.70875,0.56258l-2.6875,2.75917l0.645,3.88792l-3.3325,-1.83467l-3.3325,1.83467l0.645,-3.8915l-2.6875,-2.75917l3.70875,-0.559z" fill="#ffffff"></path></g></g></svg>